<?xml version="1.0" encoding="UTF-8" ?>
<!DOCTYPE svg PUBLIC "-//W3C//DTD SVG 1.1//EN" "http://www.w3.org/Graphics/SVG/1.1/DTD/svg11.dtd">
<svg width="924pt" height="1136pt" viewBox="0 0 924 1136" version="1.1" xmlns="http://www.w3.org/2000/svg">
<g id="#ed3237ff">
<path fill="#ed3237" opacity="1.00" d=" M 418.38 36.87 C 432.97 34.04 447.49 30.88 462.00 27.70 C 486.24 33.19 510.70 37.68 534.95 43.16 C 559.94 48.01 584.73 53.80 609.72 58.68 C 654.73 68.35 699.86 77.49 744.88 87.15 C 766.36 91.28 787.65 96.31 809.10 100.53 C 823.48 103.35 837.74 106.74 852.11 109.64 C 859.07 111.23 866.58 112.92 871.78 118.20 C 874.49 120.77 875.67 124.47 876.26 128.06 C 877.36 136.68 877.04 145.38 877.08 154.04 C 877.09 304.03 877.08 454.02 877.09 604.01 C 877.03 629.98 877.01 656.01 874.93 681.90 C 873.00 707.76 867.69 733.32 860.00 758.07 C 834.97 832.82 791.69 901.28 735.50 956.51 C 678.83 1012.44 609.46 1054.54 535.52 1083.49 C 511.52 1093.21 486.80 1100.95 462.01 1108.34 C 452.67 1105.48 443.34 1102.62 433.99 1099.82 C 387.96 1084.93 343.18 1065.90 301.25 1041.69 C 250.74 1012.62 204.38 976.02 165.60 932.44 C 138.18 901.88 114.75 867.83 95.48 831.59 C 78.62 798.97 63.96 764.84 56.20 728.81 C 52.32 712.83 50.35 696.45 48.81 680.12 C 46.00 636.48 47.17 592.72 46.91 549.01 C 46.93 412.65 46.89 276.29 46.93 139.93 C 47.39 133.16 46.77 125.65 50.83 119.80 C 56.15 112.99 65.10 111.16 73.08 109.38 C 93.00 105.20 112.87 100.77 132.85 96.87 C 147.22 93.72 161.60 90.59 176.05 87.76 C 189.72 85.10 203.25 81.76 216.94 79.15 C 232.93 76.01 248.81 72.35 264.77 69.08 C 281.21 65.89 297.55 62.22 313.93 58.76 C 335.98 54.55 357.81 49.32 379.84 45.04 C 392.73 42.53 405.50 39.43 418.38 36.87 M 461.92 52.71 C 459.33 60.18 456.48 67.56 454.11 75.10 C 453.60 76.10 453.47 78.02 451.91 77.80 C 443.26 77.89 434.63 78.48 426.00 78.84 C 433.28 84.03 440.20 89.70 447.36 95.05 C 444.87 103.71 442.40 112.37 439.84 121.01 C 447.16 115.80 454.68 110.88 461.99 105.66 C 469.32 110.87 476.86 115.79 484.17 121.03 C 481.59 112.38 479.12 103.70 476.63 95.03 C 483.82 89.71 490.74 84.04 498.00 78.81 C 488.99 78.58 480.00 77.68 470.99 77.87 C 467.91 69.50 465.26 60.98 461.92 52.71 M 427.79 144.77 C 415.87 153.41 405.00 163.42 392.97 171.92 C 388.12 175.28 382.54 178.76 376.39 178.12 C 369.62 177.27 365.29 171.43 359.39 168.71 C 353.52 166.97 347.59 170.44 343.50 174.43 C 340.16 177.46 336.75 181.43 331.96 181.76 C 323.76 180.60 318.70 171.15 310.01 171.91 C 302.51 173.81 297.93 180.73 291.38 184.36 C 288.41 186.26 284.65 186.23 281.31 185.62 C 272.99 182.59 267.12 173.91 257.88 173.42 C 248.50 175.47 242.32 183.72 233.90 187.76 C 230.95 189.14 227.46 189.32 224.35 188.40 C 219.05 185.93 215.74 180.34 210.02 178.60 C 206.32 177.92 202.90 180.03 199.85 181.83 C 194.38 185.14 189.56 190.16 183.00 191.20 C 174.55 190.47 169.88 181.79 161.97 179.70 C 153.52 179.98 149.21 189.74 140.95 190.69 C 131.58 190.53 124.67 181.45 115.14 182.05 C 105.69 184.42 101.24 195.02 92.11 198.00 C 83.47 199.26 74.40 200.21 66.72 204.73 C 62.03 207.47 58.54 212.48 58.60 218.05 C 58.47 229.19 58.59 240.35 58.55 251.50 C 327.52 251.50 596.48 251.50 865.44 251.50 C 865.40 240.32 865.53 229.13 865.40 217.96 C 865.44 212.40 861.91 207.43 857.23 204.70 C 849.54 200.18 840.47 199.27 831.84 197.99 C 822.72 194.97 818.27 184.36 808.79 182.04 C 799.28 181.50 792.37 190.55 783.01 190.68 C 774.79 189.70 770.48 180.02 762.06 179.69 C 754.12 181.76 749.46 190.48 741.00 191.20 C 731.45 189.61 725.57 180.00 716.00 178.47 C 709.07 178.62 705.51 185.87 699.59 188.42 C 696.47 189.32 692.99 189.13 690.05 187.73 C 681.63 183.68 675.44 175.41 666.04 173.41 C 658.43 173.77 653.02 180.07 646.72 183.63 C 643.26 186.19 638.60 186.58 634.57 185.32 C 627.20 182.16 622.57 174.68 614.88 172.11 C 609.44 170.66 604.92 174.88 600.71 177.61 C 597.33 179.83 593.12 183.19 588.93 181.02 C 581.99 177.63 577.92 169.53 569.75 168.41 C 562.41 166.93 558.04 174.43 551.90 176.85 C 546.47 179.63 540.15 177.68 535.27 174.68 C 513.56 160.67 495.88 140.50 471.85 130.13 C 467.52 128.45 462.74 126.60 458.10 128.13 C 446.90 131.32 437.03 137.87 427.79 144.77 M 430.03 252.31 C 429.90 256.45 429.92 260.59 429.95 264.74 C 306.17 264.63 182.38 264.68 58.60 264.71 C 58.45 292.76 58.64 320.81 58.51 348.86 C 57.75 359.23 58.03 369.62 57.99 380.01 C 57.99 457.00 57.98 533.99 57.99 610.98 C 58.69 624.31 58.62 637.66 58.94 651.01 C 59.95 676.33 61.86 701.77 67.49 726.55 C 71.68 744.08 76.81 761.42 83.64 778.13 C 110.00 844.53 150.91 905.14 202.81 954.26 C 242.70 992.21 288.71 1023.48 337.86 1048.16 C 377.53 1068.21 419.33 1083.82 461.99 1096.21 C 499.88 1085.19 537.12 1071.71 572.75 1054.69 C 640.39 1022.75 702.69 978.45 752.16 922.11 C 777.06 893.82 798.66 862.64 816.49 829.44 C 839.27 786.67 857.31 740.49 862.15 691.95 C 865.58 664.11 865.02 636.02 866.02 608.05 C 865.99 542.37 866.02 476.68 866.01 411.00 C 865.78 389.67 866.56 368.32 865.44 347.02 C 865.27 319.62 865.79 292.19 865.18 264.82 C 853.14 264.48 841.08 264.79 829.03 264.69 C 717.37 264.71 605.71 264.65 494.05 264.72 C 494.07 260.58 494.10 256.45 493.97 252.31 C 472.66 251.75 451.34 251.79 430.03 252.31 Z" />
<path fill="#ed3237" opacity="1.00" d=" M 448.23 359.00 C 449.16 350.23 453.62 342.50 457.13 334.58 C 461.13 342.32 465.38 350.25 466.37 359.05 C 466.99 362.91 466.38 366.86 466.96 370.72 C 468.31 374.18 472.18 375.86 473.59 379.33 C 477.57 387.99 474.12 398.09 478.00 406.82 C 483.35 418.14 488.43 429.73 491.11 442.01 C 494.20 458.14 494.46 474.71 498.26 490.71 C 499.70 496.16 501.34 501.99 505.79 505.82 C 505.62 508.32 505.31 511.93 502.08 512.12 C 498.35 510.26 497.00 505.86 495.61 502.23 C 490.85 486.71 491.40 470.23 488.25 454.40 C 486.62 446.97 483.77 439.88 481.04 432.80 C 479.16 427.85 476.26 423.32 474.86 418.19 C 472.24 408.17 473.03 397.39 469.05 387.70 C 467.53 383.70 462.57 381.42 462.78 376.76 C 462.78 370.82 463.26 364.84 462.14 358.96 C 461.62 354.10 459.30 349.74 457.17 345.44 C 454.86 350.89 450.92 355.82 450.69 361.97 C 449.68 367.58 452.89 373.03 451.83 378.59 C 449.94 381.35 447.22 383.56 445.96 386.74 C 441.05 399.01 443.24 413.13 437.04 424.98 C 432.87 433.27 429.91 442.11 427.16 450.95 C 422.29 469.65 422.60 489.49 415.83 507.74 C 414.73 511.05 412.77 513.96 410.39 516.48 C 408.92 510.35 408.71 504.03 408.12 497.78 C 408.54 500.37 408.86 502.96 409.20 505.56 C 413.49 501.22 415.20 495.20 416.62 489.44 C 420.39 473.06 420.42 456.10 423.91 439.67 C 426.91 428.49 431.32 417.71 436.35 407.29 C 440.01 399.29 437.91 390.22 440.00 381.91 C 440.92 377.67 444.42 374.96 447.11 371.86 C 448.36 367.72 447.26 363.23 448.23 359.00 Z" />
<path fill="#ed3237" opacity="1.00" d=" M 368.35 419.53 C 374.43 405.60 385.10 394.14 397.03 384.96 C 396.02 389.37 395.69 393.90 394.67 398.31 C 394.70 397.60 394.77 396.19 394.80 395.48 C 382.17 404.97 373.93 419.62 371.68 435.19 C 367.87 459.44 374.44 483.70 373.46 508.00 C 372.93 519.30 369.83 531.56 360.65 538.99 C 361.21 534.54 363.35 530.50 364.08 526.08 C 367.78 507.47 363.60 488.62 362.14 470.01 C 360.37 453.03 361.20 435.29 368.35 419.53 Z" />
<path fill="#ed3237" opacity="1.00" d=" M 517.75 385.26 C 533.03 396.36 545.23 412.22 550.20 430.61 C 553.67 442.08 552.77 454.17 552.67 465.98 C 551.84 484.33 547.23 502.64 549.70 521.05 C 550.55 527.31 552.07 533.55 554.80 539.28 C 555.14 537.75 555.49 536.25 555.85 534.74 C 555.53 536.59 555.25 538.46 554.96 540.32 C 551.81 538.02 548.64 535.49 546.86 531.92 C 544.02 526.41 543.61 520.01 543.54 513.93 C 544.30 491.31 549.43 468.65 545.83 446.02 C 543.27 427.19 533.88 409.23 519.58 396.67 C 518.96 392.87 518.29 389.08 517.75 385.26 Z" />
<path fill="#ed3237" opacity="1.00" d=" M 324.98 442.96 C 331.68 434.46 339.28 426.63 347.66 419.77 C 343.23 431.98 339.72 444.57 338.02 457.47 C 338.13 456.39 338.36 454.24 338.47 453.16 C 329.87 462.90 323.88 474.94 321.53 487.75 C 318.40 505.10 322.50 522.60 322.19 540.03 C 322.38 558.79 317.05 577.05 310.39 594.42 C 302.51 614.31 301.84 636.29 304.24 657.31 C 308.12 693.15 326.82 726.57 353.64 750.36 C 379.64 773.90 412.29 789.05 446.08 797.63 C 451.12 798.82 456.34 800.61 461.54 799.27 C 493.14 792.10 523.90 779.49 549.71 759.66 C 576.38 739.61 597.19 711.25 606.14 678.93 C 611.62 658.50 612.84 636.98 609.98 616.03 C 608.32 604.51 603.89 593.70 600.00 582.82 C 594.05 565.90 591.40 547.82 592.66 529.92 C 593.38 515.32 595.83 500.52 592.73 486.03 C 590.50 474.88 585.00 464.79 578.55 455.57 L 577.87 455.12 C 577.14 454.60 576.43 454.08 575.72 453.56 C 574.50 441.99 570.63 430.89 567.02 419.88 C 583.33 433.57 598.25 450.42 604.57 471.16 C 609.71 488.37 606.98 506.48 605.74 524.03 C 605.56 535.67 605.21 547.41 607.49 558.90 C 611.19 582.56 624.47 603.81 625.97 627.93 C 629.54 664.85 620.70 703.13 599.89 733.98 C 579.44 764.85 548.88 788.11 515.32 803.18 C 500.86 810.00 485.53 814.82 470.11 818.98 C 464.56 820.01 458.92 822.56 453.24 820.97 C 419.59 813.63 386.96 800.31 359.08 779.90 C 330.11 758.90 306.83 729.39 295.80 695.14 C 291.77 682.06 289.02 668.54 288.22 654.86 C 288.04 640.28 287.56 625.43 291.36 611.20 C 295.36 595.16 302.84 580.19 306.05 563.93 C 308.48 551.88 309.98 539.50 308.75 527.22 C 308.06 515.48 306.90 503.76 307.22 491.98 C 306.73 474.13 314.02 456.80 324.98 442.96 Z" />
<path fill="#ed3237" opacity="1.00" d=" M 447.29 565.27 C 460.22 563.03 473.77 564.85 485.70 570.26 C 501.44 577.07 514.00 590.43 520.54 606.21 C 527.01 622.52 526.92 641.28 520.28 657.51 C 515.15 669.33 506.86 679.87 496.09 687.05 C 479.26 698.71 456.89 701.88 437.46 695.41 C 413.99 688.13 395.72 666.75 391.95 642.51 C 390.12 629.03 391.32 614.82 397.66 602.59 C 406.76 583.01 425.97 568.61 447.29 565.27 M 451.03 599.35 C 445.10 603.17 442.76 610.17 438.35 615.35 C 433.93 618.93 426.92 620.60 425.50 626.89 C 426.56 627.66 427.64 628.43 428.73 629.20 C 435.11 629.48 441.45 630.24 447.84 630.32 C 447.75 630.81 447.58 631.79 447.49 632.28 C 448.65 632.72 449.82 633.20 450.99 633.66 C 452.38 632.08 453.33 629.27 455.84 629.38 C 463.61 629.13 471.41 628.99 479.18 629.42 C 480.55 630.14 481.92 630.86 483.32 631.55 C 484.54 632.29 485.74 633.05 486.95 633.83 C 490.43 630.41 494.57 627.66 497.24 623.48 C 499.31 619.64 498.49 615.15 496.16 611.66 C 493.41 607.54 489.74 604.29 485.78 601.38 C 485.29 601.12 484.30 600.60 483.80 600.34 C 482.44 599.73 481.12 599.06 479.86 598.29 C 478.89 597.96 477.93 597.65 476.96 597.37 C 468.42 595.15 458.88 594.74 451.03 599.35 M 422.65 645.28 C 419.94 646.91 421.30 649.80 422.59 651.89 C 422.75 654.91 422.61 657.93 422.58 660.95 C 425.12 659.53 426.56 657.02 427.51 654.35 C 437.65 653.85 447.81 654.23 457.97 654.11 C 470.11 654.23 482.27 653.86 494.41 654.33 C 495.33 656.49 496.32 658.67 497.97 660.40 C 498.71 660.35 499.46 660.31 500.21 660.29 C 500.02 656.37 499.89 652.40 500.84 648.56 C 501.39 647.32 500.18 646.41 499.63 645.47 C 498.61 645.55 497.61 645.63 496.60 645.71 C 495.24 647.06 493.86 648.39 492.48 649.72 C 471.49 649.94 450.48 650.05 429.49 649.67 C 427.61 647.68 425.50 645.61 422.65 645.28 Z" />
<path fill="#ed3237" opacity="1.00" d=" M 462.50 847.58 C 468.02 847.68 473.54 847.80 479.06 847.91 C 485.17 857.92 490.94 868.13 497.03 878.16 C 491.75 877.93 486.45 878.25 481.20 877.80 C 480.26 876.22 479.63 874.49 478.94 872.81 C 473.16 872.58 467.37 872.63 461.59 872.52 C 460.75 874.18 459.90 875.85 459.06 877.53 C 453.94 877.43 448.83 877.34 443.71 877.22 C 449.86 867.26 456.41 857.57 462.50 847.58 M 464.98 866.17 C 468.60 866.27 472.22 866.32 475.84 866.35 C 474.07 862.81 472.36 859.25 470.63 855.70 C 468.41 859.00 466.70 862.59 464.98 866.17 Z" />
<path fill="#ed3237" opacity="1.00" d=" M 503.80 847.38 C 508.40 848.25 512.97 849.32 517.63 849.94 C 518.96 855.61 519.03 861.50 519.77 867.27 C 523.83 862.67 526.86 857.29 530.65 852.48 C 535.26 853.56 539.95 854.28 544.58 855.33 C 546.02 861.25 547.38 867.19 548.96 873.08 C 551.82 868.03 554.49 862.89 557.12 857.73 C 561.78 858.62 566.44 859.56 571.09 860.55 C 565.70 869.69 560.40 878.88 554.77 887.87 C 550.05 886.90 545.34 885.82 540.56 885.16 C 538.64 878.49 537.13 871.72 535.46 864.99 C 531.10 870.39 527.56 876.38 523.27 881.84 C 518.47 880.82 513.65 879.94 508.85 878.95 C 507.36 868.39 505.43 857.91 503.80 847.38 Z" />
<path fill="#ed3237" opacity="1.00" d=" M 417.66 849.20 C 424.13 848.49 432.54 848.99 436.18 855.30 C 431.57 856.40 426.99 857.61 422.35 858.54 C 418.14 854.74 411.72 855.68 407.10 858.15 C 400.90 861.25 402.42 872.23 409.13 873.71 C 414.57 875.32 420.21 873.26 425.21 871.14 L 425.52 870.64 C 425.55 869.99 425.61 868.68 425.64 868.03 C 422.18 868.26 418.74 868.68 415.31 869.14 C 414.99 867.03 414.70 864.92 414.48 862.81 C 422.22 862.36 429.88 861.07 437.58 860.17 C 438.21 864.41 438.75 868.67 439.20 872.94 C 433.40 875.86 427.50 878.81 421.02 879.80 C 412.89 881.11 404.06 882.37 396.31 878.82 C 391.09 876.50 387.48 870.72 388.35 864.98 C 389.05 859.85 393.16 855.95 397.56 853.68 C 403.79 850.62 410.83 849.90 417.66 849.20 Z" />
<path fill="#ed3237" opacity="1.00" d=" M 359.48 859.19 C 364.02 857.96 368.44 856.37 373.00 855.25 C 375.73 864.88 379.14 874.31 381.60 884.01 C 377.01 885.11 372.56 886.66 368.06 888.04 C 360.67 884.48 353.15 881.18 345.70 877.75 C 347.34 882.93 348.67 888.20 350.47 893.34 C 345.96 894.78 341.41 896.11 336.89 897.53 C 333.87 887.98 330.74 878.44 328.25 868.74 C 332.87 867.69 337.24 865.38 342.02 865.18 C 349.56 867.88 356.41 872.25 363.94 875.02 C 362.67 869.68 360.77 864.52 359.48 859.19 Z" />
<path fill="#ed3237" opacity="1.00" d=" M 580.72 867.76 C 581.27 866.94 581.51 864.70 582.94 865.42 C 587.31 867.01 591.55 868.92 595.84 870.71 C 592.42 880.03 588.23 889.06 584.85 898.39 C 580.07 896.75 575.50 894.55 570.70 892.96 C 574.01 884.55 577.30 876.13 580.72 867.76 Z" />
</g>
<g id="#fff212ff">
<path fill="#fff212" opacity="1.00" d=" M 461.92 52.71 C 465.26 60.98 467.91 69.50 470.99 77.87 C 480.00 77.68 488.99 78.58 498.00 78.81 C 490.74 84.04 483.82 89.71 476.63 95.03 C 479.12 103.70 481.59 112.38 484.17 121.03 C 476.86 115.79 469.32 110.87 461.99 105.66 C 454.68 110.88 447.16 115.80 439.84 121.01 C 442.40 112.37 444.87 103.71 447.36 95.05 C 440.20 89.70 433.28 84.03 426.00 78.84 C 434.63 78.48 443.26 77.89 451.91 77.80 C 453.47 78.02 453.60 76.10 454.11 75.10 C 456.48 67.56 459.33 60.18 461.92 52.71 Z" />
<path fill="#fff212" opacity="1.00" d=" M 430.03 252.31 C 451.34 251.79 472.66 251.75 493.97 252.31 C 494.10 256.45 494.07 260.58 494.05 264.72 C 494.06 271.91 494.86 280.19 500.79 285.13 C 507.79 291.37 517.95 289.77 526.41 288.38 C 535.48 287.05 545.03 283.41 554.05 286.80 C 562.64 289.94 565.98 300.94 575.57 302.07 C 585.80 302.95 594.86 296.27 605.04 296.38 C 612.38 296.40 618.83 300.44 624.96 304.05 C 631.92 308.12 638.64 313.45 646.90 314.47 C 657.96 315.89 667.93 308.12 679.00 310.05 C 693.18 312.75 702.68 325.87 716.93 328.41 C 730.22 330.72 742.43 321.45 755.68 323.66 C 764.88 325.62 768.30 336.19 776.92 339.21 C 782.41 341.35 788.28 339.23 793.57 337.47 C 801.21 335.03 809.06 330.59 817.31 332.53 C 827.63 335.20 831.76 347.13 841.83 350.22 C 849.45 352.63 857.69 352.58 865.42 350.70 C 865.91 365.28 865.51 379.88 865.68 394.47 C 858.87 394.86 852.16 393.54 845.58 391.96 C 833.56 389.39 825.73 378.29 814.05 374.97 C 808.05 373.54 803.17 377.96 798.19 380.43 C 794.33 382.61 789.56 381.40 786.24 378.79 C 781.21 375.02 776.65 369.92 770.15 368.85 C 760.28 367.47 750.40 371.07 740.55 369.30 C 733.35 367.44 728.61 360.10 720.88 359.69 C 712.62 360.00 705.75 366.63 697.34 365.83 C 687.68 364.20 681.06 355.69 671.65 353.41 C 662.02 351.45 652.79 357.28 643.15 355.67 C 634.49 353.90 629.23 345.15 620.45 343.71 C 610.48 342.40 601.27 348.96 591.29 347.39 C 583.97 345.76 579.83 338.14 572.43 336.66 C 561.23 334.82 550.47 342.05 539.30 339.43 C 532.04 337.62 528.68 330.12 522.64 326.39 C 515.70 321.93 507.06 322.20 499.14 321.93 C 489.51 321.48 479.25 321.47 470.62 316.60 C 465.85 314.02 463.01 309.12 461.35 304.13 C 459.75 308.24 457.86 312.49 454.31 315.29 C 448.63 319.90 441.09 320.99 434.03 321.57 C 424.01 322.56 413.41 320.82 403.92 324.95 C 396.63 328.01 393.28 336.35 385.84 339.10 C 374.74 342.13 364.00 335.56 352.91 336.47 C 344.45 337.17 340.06 346.39 331.79 347.53 C 322.13 348.53 313.22 342.45 303.55 343.71 C 294.77 345.15 289.51 353.90 280.85 355.67 C 271.21 357.28 261.96 351.44 252.33 353.42 C 242.87 355.71 236.22 364.32 226.48 365.85 C 218.13 366.52 211.32 360.00 203.12 359.69 C 195.66 360.10 190.97 366.93 184.18 369.10 C 173.63 371.50 162.85 366.87 152.32 369.20 C 144.62 371.06 140.33 378.78 132.97 381.23 C 127.83 382.79 123.46 378.99 119.25 376.71 C 115.59 374.45 110.88 374.08 106.98 375.91 C 98.29 379.80 91.48 386.95 82.71 390.68 C 74.84 393.12 66.61 394.83 58.33 394.47 C 58.48 379.88 58.10 365.29 58.57 350.70 C 67.08 352.73 76.30 352.71 84.47 349.33 C 93.38 345.00 97.79 333.84 108.23 332.19 C 120.79 330.89 131.47 340.81 143.98 339.99 C 154.91 338.77 158.40 325.18 169.11 323.51 C 182.02 321.87 193.87 330.55 206.83 328.45 C 220.90 326.06 230.30 313.38 244.08 310.21 C 256.37 307.55 267.68 317.29 279.99 313.95 C 292.34 310.42 301.57 300.20 314.05 296.96 C 321.16 295.21 328.29 297.78 335.00 299.93 C 340.26 301.45 346.01 303.33 351.42 301.33 C 357.93 299.03 360.96 292.11 366.65 288.59 C 371.32 285.24 377.35 284.95 382.86 285.73 C 393.03 287.05 403.08 290.50 413.43 289.39 C 419.69 288.81 425.43 284.58 427.82 278.77 C 429.63 274.34 429.87 269.47 429.95 264.74 C 429.92 260.59 429.90 256.45 430.03 252.31 Z" />
<path fill="#fff212" opacity="1.00" d=" M 450.69 361.97 C 450.92 355.82 454.86 350.89 457.17 345.44 C 459.30 349.74 461.62 354.10 462.14 358.96 C 463.26 364.84 462.78 370.82 462.78 376.76 C 462.57 381.42 467.53 383.70 469.05 387.70 C 473.03 397.39 472.24 408.17 474.86 418.19 C 476.26 423.32 479.16 427.85 481.04 432.80 C 483.77 439.88 486.62 446.97 488.25 454.40 C 491.40 470.23 490.85 486.71 495.61 502.23 C 497.00 505.86 498.35 510.26 502.08 512.12 C 505.31 511.93 505.62 508.32 505.79 505.82 C 506.10 495.11 508.46 484.48 512.67 474.64 C 516.14 466.64 519.45 458.49 521.03 449.88 C 524.46 432.27 522.20 414.22 519.58 396.67 C 533.88 409.23 543.27 427.19 545.83 446.02 C 549.43 468.65 544.30 491.31 543.54 513.93 C 543.61 520.01 544.02 526.41 546.86 531.92 C 548.64 535.49 551.81 538.02 554.96 540.32 C 555.25 538.46 555.53 536.59 555.85 534.74 C 558.62 517.14 571.76 503.61 575.63 486.39 C 578.34 475.86 577.61 464.84 576.19 454.17 C 576.61 454.41 577.45 454.88 577.87 455.12 L 578.55 455.57 C 585.00 464.79 590.50 474.88 592.73 486.03 C 595.83 500.52 593.38 515.32 592.66 529.92 C 591.40 547.82 594.05 565.90 600.00 582.82 C 603.89 593.70 608.32 604.51 609.98 616.03 C 612.84 636.98 611.62 658.50 606.14 678.93 C 597.19 711.25 576.38 739.61 549.71 759.66 C 523.90 779.49 493.14 792.10 461.54 799.27 C 456.34 800.61 451.12 798.82 446.08 797.63 C 412.29 789.05 379.64 773.90 353.64 750.36 C 326.82 726.57 308.12 693.15 304.24 657.31 C 301.84 636.29 302.51 614.31 310.39 594.42 C 317.05 577.05 322.38 558.79 322.19 540.03 C 322.50 522.60 318.40 505.10 321.53 487.75 C 323.88 474.94 329.87 462.90 338.47 453.16 C 338.36 454.24 338.13 456.39 338.02 457.47 C 336.70 468.00 336.61 478.88 339.65 489.13 C 342.99 501.72 351.41 512.07 355.78 524.25 C 357.81 529.25 358.80 534.58 359.69 539.89 C 359.93 539.66 360.41 539.22 360.65 538.99 C 369.83 531.56 372.93 519.30 373.46 508.00 C 374.44 483.70 367.87 459.44 371.68 435.19 C 373.93 419.62 382.17 404.97 394.80 395.48 C 394.77 396.19 394.70 397.60 394.67 398.31 C 392.82 412.75 390.49 427.39 392.36 441.95 C 393.14 451.72 396.08 461.20 400.03 470.13 C 403.93 478.93 407.01 488.19 408.12 497.78 C 408.71 504.03 408.92 510.35 410.39 516.48 C 412.77 513.96 414.73 511.05 415.83 507.74 C 422.60 489.49 422.29 469.65 427.16 450.95 C 429.91 442.11 432.87 433.27 437.04 424.98 C 443.24 413.13 441.05 399.01 445.96 386.74 C 447.22 383.56 449.94 381.35 451.83 378.59 C 452.89 373.03 449.68 367.58 450.69 361.97 M 394.12 553.21 C 389.70 557.16 385.45 561.61 383.25 567.22 C 380.75 573.00 381.29 579.44 380.36 585.54 C 379.79 588.70 376.57 590.15 373.71 590.53 C 363.64 592.07 353.21 590.90 343.36 593.93 C 331.55 597.21 320.62 605.38 315.90 616.92 C 312.89 623.85 312.97 632.05 316.22 638.88 C 320.38 648.19 328.80 654.69 337.42 659.67 C 340.61 661.60 344.69 663.00 346.34 666.65 C 348.51 672.95 347.32 679.73 348.23 686.23 C 349.03 695.28 352.19 704.71 359.35 710.71 C 369.66 719.77 384.05 721.86 397.31 721.77 C 399.04 725.51 400.90 729.86 399.02 733.93 C 395.33 742.74 383.97 745.21 380.73 754.28 C 392.41 754.24 404.02 755.53 415.69 755.43 C 442.86 756.01 470.03 756.05 497.19 755.46 C 509.48 755.51 521.71 754.28 534.01 754.28 C 530.55 745.69 520.25 742.96 516.00 734.98 C 513.80 730.71 515.13 725.68 517.39 721.75 C 531.16 721.93 546.18 719.44 556.51 709.57 C 564.81 701.39 566.76 689.14 566.77 677.98 C 567.15 672.55 566.55 665.23 572.35 662.39 C 581.33 657.54 590.33 651.81 596.04 643.11 C 600.30 636.68 602.25 628.47 600.06 620.94 C 596.57 608.00 585.27 598.32 572.76 594.40 C 562.90 591.00 552.33 591.99 542.13 590.74 C 539.25 590.34 535.65 589.59 534.56 586.48 C 533.10 581.93 533.89 577.03 532.85 572.40 C 531.53 565.48 527.36 559.41 522.13 554.83 C 504.67 537.97 480.97 528.64 457.08 526.01 C 434.09 528.73 411.34 537.43 394.12 553.21 Z" />
<path fill="#fff212" opacity="1.00" d=" M 203.44 421.49 C 209.04 418.40 214.62 415.15 219.17 410.58 C 221.65 424.71 217.98 440.36 207.86 450.81 C 203.92 455.35 198.49 457.96 193.14 460.41 C 188.26 471.75 183.85 483.41 180.47 495.32 C 189.69 490.31 189.49 478.32 196.10 471.12 C 199.73 466.59 205.69 465.41 210.38 462.38 C 214.12 460.20 216.90 456.85 219.85 453.77 C 220.13 466.21 215.34 478.82 206.83 487.92 C 201.82 492.91 195.51 496.90 188.49 498.21 C 186.90 498.58 185.32 498.05 183.80 497.64 C 182.17 498.35 180.55 499.10 178.94 499.86 C 175.21 514.46 171.05 529.04 169.41 544.06 C 172.61 541.84 176.04 539.56 177.82 535.95 C 180.77 530.14 182.21 523.52 186.32 518.33 C 190.00 513.65 196.02 512.09 200.78 508.84 C 204.51 506.52 207.26 503.04 210.24 499.89 C 210.22 514.28 204.81 529.28 193.42 538.53 C 188.04 542.80 181.23 546.08 174.20 545.11 C 172.31 546.32 170.44 547.58 168.58 548.84 C 166.25 564.88 164.81 581.08 164.87 597.30 C 168.18 594.85 171.50 592.15 173.40 588.43 C 176.39 582.06 176.62 574.61 180.58 568.68 C 183.57 564.15 188.72 562.01 192.91 558.85 C 196.84 556.14 199.20 551.90 202.27 548.37 C 203.99 562.73 199.81 578.12 189.41 588.46 C 184.55 592.79 178.69 597.39 171.76 596.63 C 169.44 598.48 166.46 599.97 164.90 602.49 C 164.73 618.84 166.13 635.22 168.51 651.39 C 176.45 645.23 174.82 634.40 177.63 625.84 C 179.29 620.05 184.48 616.56 188.76 612.79 C 192.70 609.34 195.40 604.76 197.55 600.05 C 201.63 612.95 199.09 627.52 191.87 638.84 C 188.45 643.86 183.94 648.43 178.33 650.92 C 174.98 651.74 171.52 652.44 169.14 655.18 C 170.91 670.78 174.71 686.07 179.07 701.13 C 185.29 693.14 180.63 682.29 184.33 673.45 C 186.31 667.88 191.34 664.37 194.57 659.63 C 197.05 656.18 198.30 652.08 199.99 648.23 C 205.11 661.29 205.15 676.80 198.32 689.25 C 194.76 694.96 190.29 700.98 183.53 702.96 C 182.35 703.42 181.30 704.11 180.22 704.77 C 185.14 721.13 191.53 737.08 199.17 752.36 C 202.48 744.02 197.63 735.56 198.36 727.06 C 198.20 720.73 202.79 715.94 205.45 710.61 C 207.72 706.39 208.53 701.61 209.01 696.90 C 216.44 707.60 219.15 721.55 216.16 734.24 C 214.12 742.25 209.96 750.47 202.31 754.40 C 200.29 755.52 201.89 757.90 202.57 759.38 C 208.26 770.14 214.39 780.68 221.13 790.83 C 221.99 792.12 223.02 793.29 224.11 794.40 C 225.15 785.49 218.77 777.83 219.14 768.98 C 218.90 762.90 222.66 757.78 224.03 752.06 C 225.23 748.05 225.14 743.85 225.17 739.71 C 235.60 750.28 240.33 766.33 236.96 780.82 C 235.41 786.52 233.29 792.72 228.20 796.23 C 226.99 796.99 225.75 798.41 227.19 799.72 C 235.10 810.79 243.49 821.55 252.60 831.66 C 253.13 822.70 245.74 815.73 245.32 806.93 C 244.95 801.32 248.03 796.33 248.98 790.94 C 249.91 786.60 249.52 782.15 249.12 777.78 C 259.04 786.47 265.54 799.60 264.78 812.95 C 264.79 820.56 262.42 828.64 256.76 833.98 C 255.65 834.75 256.32 836.06 257.13 836.75 C 269.70 850.37 283.33 862.98 297.64 874.74 C 294.81 876.13 292.09 877.75 289.58 879.67 C 277.18 869.71 265.73 858.61 254.84 847.04 C 251.94 846.98 249.05 846.59 246.15 846.75 C 243.64 847.59 241.54 849.46 238.85 849.84 C 229.10 851.77 219.00 848.53 210.97 843.01 C 202.00 836.85 195.80 827.35 192.27 817.18 C 196.52 819.37 200.91 821.52 205.70 822.18 C 211.27 823.12 217.25 821.98 222.49 824.52 C 228.88 827.43 232.82 833.52 237.77 838.20 C 241.32 841.69 246.41 842.79 251.19 843.33 C 241.30 831.86 231.72 820.11 223.10 807.64 C 219.66 807.08 216.01 805.05 212.59 806.64 C 208.60 808.36 204.09 807.92 199.96 807.05 C 184.17 803.18 172.42 788.33 170.15 772.58 C 173.39 774.94 176.78 777.24 180.68 778.34 C 185.79 780.07 191.58 779.80 196.20 782.87 C 202.66 786.83 204.91 794.73 210.60 799.47 C 213.50 801.77 217.12 802.83 220.61 803.87 C 211.67 790.94 203.98 777.18 196.76 763.24 C 194.30 761.40 190.91 759.99 187.78 760.77 C 181.41 762.12 175.04 759.43 169.66 756.24 C 157.79 748.36 151.43 734.12 150.76 720.18 C 153.92 723.08 157.01 726.19 160.94 728.06 C 165.62 730.54 171.33 730.99 175.34 734.70 C 180.75 739.54 182.05 747.14 186.42 752.73 C 188.51 755.25 191.35 757.00 194.33 758.31 C 188.20 744.82 182.32 731.15 177.78 717.03 C 176.86 713.00 172.35 711.33 168.95 709.85 C 162.51 710.47 156.56 707.32 151.66 703.46 C 145.13 698.15 141.00 690.42 138.64 682.46 C 136.74 676.29 137.15 669.77 137.34 663.42 C 140.30 666.51 142.62 670.29 146.30 672.64 C 150.28 675.72 155.43 677.26 158.71 681.21 C 163.24 687.05 163.64 694.78 166.87 701.25 C 168.76 704.77 171.92 707.41 175.27 709.50 C 170.59 694.09 166.67 678.44 164.27 662.51 C 163.92 658.28 159.22 656.57 155.59 656.28 C 147.57 653.50 141.64 646.54 137.96 639.10 C 133.14 628.48 132.54 616.10 135.91 604.96 C 137.72 608.95 139.65 613.03 142.91 616.07 C 146.27 619.76 150.95 622.14 153.63 626.44 C 159.28 635.19 155.27 647.41 162.99 655.17 C 160.47 636.05 159.05 616.77 159.58 597.48 C 156.39 596.34 152.80 596.17 150.01 594.09 C 140.45 587.71 135.00 576.35 134.47 565.03 C 134.22 558.81 134.30 552.33 136.85 546.53 C 138.15 549.65 139.44 552.84 141.58 555.50 C 145.10 560.26 150.92 562.99 153.57 568.45 C 157.29 575.80 155.22 584.60 158.85 592.01 C 159.18 592.21 159.83 592.61 160.16 592.81 C 159.87 577.49 162.22 562.29 164.44 547.17 C 162.92 544.88 162.34 541.35 159.23 540.71 C 154.66 539.16 151.55 535.16 148.78 531.43 C 140.52 518.36 141.50 501.17 148.01 487.58 C 149.40 493.85 152.00 499.90 156.51 504.57 C 161.03 509.13 162.68 515.74 162.02 522.01 C 161.41 528.72 160.87 536.20 165.23 541.88 C 167.91 528.05 170.89 514.25 175.21 500.83 C 173.76 497.78 173.13 493.87 169.94 492.09 C 165.05 488.92 162.97 483.03 161.22 477.75 C 157.76 463.83 162.24 448.75 171.16 437.78 C 171.45 441.92 171.46 446.17 172.93 450.12 C 174.51 455.19 178.22 459.57 178.52 465.02 C 178.98 472.31 174.98 478.86 174.20 485.98 C 174.02 489.51 175.13 492.96 176.69 496.09 C 179.75 483.03 186.28 471.10 189.49 458.12 C 189.05 452.53 187.62 446.87 188.94 441.26 C 190.53 432.94 195.99 425.51 203.44 421.49 Z" />
<path fill="#fff212" opacity="1.00" d=" M 724.22 452.55 C 727.50 448.20 732.93 447.09 737.63 444.98 C 737.25 452.20 734.69 459.60 728.89 464.24 C 730.81 468.66 732.63 473.13 734.34 477.64 C 732.76 478.01 731.16 478.24 729.57 478.49 C 728.22 474.71 726.70 470.99 725.15 467.30 C 718.75 468.19 712.11 467.38 706.13 464.93 C 703.05 463.56 699.98 461.52 698.64 458.30 C 698.57 457.89 698.43 457.09 698.36 456.68 C 702.83 455.80 707.54 454.60 711.95 456.47 C 713.20 453.38 715.03 450.58 717.10 447.97 C 719.55 449.37 721.96 450.85 724.22 452.55 Z" />
<path fill="#fff212" opacity="1.00" d=" M 745.11 507.32 C 747.78 503.14 752.55 501.49 756.88 499.63 L 758.31 498.99 C 757.63 503.95 757.32 509.22 754.57 513.57 C 753.04 516.34 750.50 518.31 748.37 520.58 C 747.77 521.77 748.46 523.14 748.59 524.39 C 749.79 529.46 750.90 534.56 752.00 539.67 C 750.19 539.84 748.39 539.95 746.60 540.09 C 745.66 534.22 744.17 528.47 743.11 522.62 C 734.91 522.40 724.58 522.14 719.73 514.33 C 719.71 513.95 719.66 513.20 719.64 512.83 C 723.99 511.60 728.57 510.48 733.05 511.84 C 734.16 508.69 735.80 505.77 737.71 503.03 C 740.28 504.25 742.80 505.63 745.11 507.32 Z" />
<path fill="#fff212" opacity="1.00" d=" M 757.26 570.87 C 761.15 567.13 766.58 566.47 771.50 564.92 C 770.18 573.33 765.35 581.34 757.39 584.94 C 757.46 590.48 757.61 596.03 757.52 601.57 C 755.81 601.32 754.13 600.93 752.47 600.57 C 752.18 595.59 752.58 590.58 751.82 585.63 C 744.54 584.29 736.16 582.19 731.95 575.53 C 731.70 574.78 731.18 573.29 730.92 572.54 C 735.48 571.67 740.40 570.95 744.57 573.55 C 746.27 570.61 748.45 568.00 750.86 565.62 C 753.08 567.26 755.24 568.98 757.26 570.87 Z" />
<path fill="#fff212" opacity="1.00" d=" M 744.13 632.92 C 746.38 630.61 748.57 627.84 751.82 626.97 C 754.15 628.42 755.63 630.80 757.11 633.05 C 761.44 629.68 767.02 630.39 772.12 629.88 C 769.28 637.90 762.91 644.59 754.52 646.69 C 753.81 651.16 753.18 655.65 752.40 660.11 C 750.52 659.53 748.56 659.35 746.62 659.17 C 747.30 654.86 748.15 650.57 748.64 646.23 C 741.41 643.04 732.53 639.09 730.79 630.50 C 730.91 630.15 731.16 629.45 731.29 629.10 C 735.78 629.46 740.51 629.91 744.13 632.92 Z" />
<path fill="#fff212" opacity="1.00" d=" M 724.48 685.11 C 724.80 684.79 725.42 684.15 725.73 683.83 C 729.89 685.48 734.67 686.61 737.20 690.69 C 740.02 688.74 743.10 687.23 746.25 685.91 C 747.73 688.41 749.01 691.02 749.99 693.76 C 755.10 691.23 760.51 693.62 765.75 694.24 C 760.33 701.58 751.16 705.06 742.22 704.69 C 740.41 710.03 738.40 715.30 736.35 720.55 C 733.60 718.93 730.54 719.62 727.93 721.12 C 730.85 715.16 733.11 708.92 735.61 702.79 C 730.09 698.48 723.48 692.92 724.48 685.11 Z" />
<path fill="#fff212" opacity="1.00" d=" M 452.17 716.92 C 455.56 716.26 459.44 715.51 462.58 717.35 C 465.78 721.13 468.41 725.93 468.28 731.01 C 467.40 737.35 461.70 741.14 457.05 744.77 C 453.19 741.06 448.05 737.92 446.55 732.46 C 445.30 726.62 448.96 721.41 452.17 716.92 Z" />
<path fill="#fff212" opacity="1.00" d=" M 414.68 721.57 C 419.94 721.16 425.18 720.45 430.45 720.07 C 433.15 724.16 435.03 729.34 433.22 734.17 C 431.05 738.69 426.78 741.63 423.06 744.79 C 419.42 741.51 414.97 738.69 412.93 734.06 C 411.47 729.88 412.65 725.35 414.68 721.57 Z" />
<path fill="#fff212" opacity="1.00" d=" M 481.22 733.73 C 479.31 728.99 481.65 723.94 484.30 720.01 C 489.48 720.72 494.81 720.71 499.90 721.89 C 502.07 725.60 503.35 730.41 501.39 734.49 C 499.39 738.91 495.10 741.57 491.63 744.74 C 487.61 741.71 483.27 738.48 481.22 733.73 Z" />
<path fill="#fff212" opacity="1.00" d=" M 703.59 739.01 C 703.80 738.62 704.23 737.84 704.44 737.45 C 708.18 740.36 713.06 742.61 714.33 747.62 C 717.61 746.37 721.06 745.63 724.54 745.20 C 725.37 748.16 726.02 751.17 726.51 754.21 C 732.08 753.33 736.66 756.67 741.53 758.67 C 734.45 764.63 724.37 765.68 715.77 762.83 C 713.55 766.74 711.30 770.64 708.97 774.48 C 706.84 772.43 704.69 770.35 702.06 768.96 C 704.14 765.20 706.55 761.63 708.70 757.92 C 704.91 752.64 699.92 745.58 703.59 739.01 Z" />
<path fill="#fff212" opacity="1.00" d=" M 671.23 787.24 C 671.43 786.92 671.84 786.28 672.04 785.96 C 675.97 788.78 680.25 791.71 681.83 796.55 C 685.22 795.48 688.73 794.84 692.28 794.63 C 692.58 797.56 692.84 800.51 692.94 803.46 C 698.46 802.93 703.10 806.03 707.68 808.59 L 708.40 808.97 C 701.19 813.77 692.07 814.60 683.83 812.28 C 680.61 817.08 677.08 821.66 673.53 826.23 C 671.79 824.61 670.17 822.88 668.50 821.20 C 668.31 820.75 667.93 819.85 667.74 819.41 L 667.57 819.03 C 670.49 815.16 673.49 811.35 676.21 807.33 C 672.15 801.77 667.14 794.08 671.23 787.24 Z" />
<path fill="#fff212" opacity="1.00" d=" M 634.85 837.39 C 635.34 837.31 636.32 837.15 636.80 837.07 C 640.40 839.79 644.24 842.70 645.40 847.32 C 648.70 846.22 652.15 845.82 655.60 845.52 C 656.34 848.38 656.79 851.32 656.89 854.29 C 662.65 853.74 666.95 857.95 671.90 860.05 C 663.89 865.72 653.43 865.41 644.52 862.25 C 640.11 867.34 635.75 872.48 631.14 877.38 C 628.54 875.79 625.85 874.36 623.10 873.07 C 627.73 867.05 633.16 861.71 637.97 855.84 C 634.68 850.32 632.19 843.70 634.85 837.39 Z" />
<path fill="#fff212" opacity="1.00" d=" M 460.31 887.04 C 465.10 886.62 469.90 887.30 474.70 887.14 C 474.68 898.33 474.67 909.51 474.71 920.69 C 471.58 921.88 468.29 922.80 465.49 924.69 C 468.00 926.12 471.06 926.94 473.07 929.09 C 473.41 931.17 473.44 933.29 473.60 935.41 C 471.08 936.74 468.50 937.96 465.88 939.07 C 468.63 941.76 471.60 944.22 474.53 946.71 C 473.86 960.03 473.83 973.37 472.98 986.69 C 477.52 989.69 482.25 992.38 486.86 995.27 C 483.08 1001.04 479.35 1006.85 475.62 1012.66 C 474.44 1014.18 474.73 1016.18 474.66 1017.99 C 474.73 1025.29 474.64 1032.58 474.73 1039.88 C 471.87 1040.27 469.02 1040.68 466.17 1041.09 C 469.07 1044.48 471.88 1047.93 474.76 1051.35 C 474.68 1052.99 474.61 1054.66 474.55 1056.33 C 468.04 1054.86 461.31 1055.05 454.70 1055.25 C 454.61 1047.84 454.64 1040.43 454.61 1033.02 C 454.48 1028.69 456.43 1024.73 457.88 1020.76 C 460.85 1013.18 463.64 1005.52 466.48 997.89 C 462.53 998.04 458.59 998.23 454.64 998.39 C 454.63 986.58 454.66 974.77 454.63 962.96 C 458.72 957.92 462.80 952.87 466.87 947.82 C 463.04 943.36 458.58 939.54 454.58 935.27 C 454.71 924.17 454.65 913.06 454.60 901.96 C 454.14 896.36 457.71 891.66 460.31 887.04 Z" />
<path fill="#fff212" opacity="1.00" d=" M 434.80 889.87 C 434.55 886.92 438.24 887.69 440.10 887.40 C 442.21 891.06 444.74 894.52 446.36 898.45 C 447.12 903.58 446.47 908.82 446.66 914.00 C 446.48 920.52 447.03 927.08 446.45 933.59 C 443.51 939.03 439.39 943.78 436.19 949.09 C 439.05 953.07 442.30 956.74 445.40 960.54 C 447.27 962.54 446.53 965.47 446.71 967.95 C 446.48 977.85 446.95 987.78 446.51 997.66 C 444.19 1000.03 441.12 1001.44 438.34 1003.18 C 440.84 1008.95 444.85 1014.12 446.57 1020.18 C 446.81 1032.00 446.62 1043.83 446.62 1055.65 C 446.62 1055.80 446.62 1056.11 446.62 1056.26 C 442.63 1056.56 438.75 1057.78 434.73 1057.59 C 434.93 1041.35 434.63 1025.11 434.87 1008.88 C 436.38 1004.94 439.49 1001.87 441.66 998.29 C 439.46 994.18 436.54 990.41 434.94 986.00 C 434.46 975.73 435.11 965.40 434.66 955.13 C 431.72 948.72 427.86 942.73 424.26 936.66 C 427.73 936.05 431.23 935.56 434.77 935.50 C 434.84 920.29 434.75 905.08 434.80 889.87 Z" />
<path fill="#fff212" opacity="1.00" d=" M 443.34 1059.43 C 454.52 1057.09 466.23 1056.84 477.36 1059.63 C 487.91 1062.29 498.73 1059.81 509.41 1059.67 C 509.41 1062.89 509.41 1066.12 509.44 1069.36 C 501.60 1069.72 493.78 1070.83 485.91 1070.54 C 480.21 1070.40 474.74 1068.56 469.07 1068.13 C 458.98 1066.67 448.79 1068.19 438.85 1069.99 C 428.01 1071.57 417.11 1069.62 406.25 1069.45 C 406.22 1066.26 406.23 1063.08 406.27 1059.90 C 418.51 1062.01 431.19 1062.21 443.34 1059.43 Z" />
</g>
<g id="#1e2223ff">
<path fill="#1e2223" opacity="1.00" d=" M 427.79 144.77 C 437.03 137.87 446.90 131.32 458.10 128.13 C 462.74 126.60 467.52 128.45 471.85 130.13 C 495.88 140.50 513.56 160.67 535.27 174.68 C 540.15 177.68 546.47 179.63 551.90 176.85 C 558.04 174.43 562.41 166.93 569.75 168.41 C 577.92 169.53 581.99 177.63 588.93 181.02 C 593.12 183.19 597.33 179.83 600.71 177.61 C 604.92 174.88 609.44 170.66 614.88 172.11 C 622.57 174.68 627.20 182.16 634.57 185.32 C 638.60 186.58 643.26 186.19 646.72 183.63 C 653.02 180.07 658.43 173.77 666.04 173.41 C 675.44 175.41 681.63 183.68 690.05 187.73 C 692.99 189.13 696.47 189.32 699.59 188.42 C 705.51 185.87 709.07 178.62 716.00 178.47 C 725.57 180.00 731.45 189.61 741.00 191.20 C 749.46 190.48 754.12 181.76 762.06 179.69 C 770.48 180.02 774.79 189.70 783.01 190.68 C 792.37 190.55 799.28 181.50 808.79 182.04 C 818.27 184.36 822.72 194.97 831.84 197.99 C 840.47 199.27 849.54 200.18 857.23 204.70 C 861.91 207.43 865.44 212.40 865.40 217.96 C 865.53 229.13 865.40 240.32 865.44 251.50 C 596.48 251.50 327.52 251.50 58.55 251.50 C 58.59 240.35 58.47 229.19 58.60 218.05 C 58.54 212.48 62.03 207.47 66.72 204.73 C 74.40 200.21 83.47 199.26 92.11 198.00 C 101.24 195.02 105.69 184.42 115.14 182.05 C 124.67 181.45 131.58 190.53 140.95 190.69 C 149.21 189.74 153.52 179.98 161.97 179.70 C 169.88 181.79 174.55 190.47 183.00 191.20 C 189.56 190.16 194.38 185.14 199.85 181.83 C 202.90 180.03 206.32 177.92 210.02 178.60 C 215.74 180.34 219.05 185.93 224.35 188.40 C 227.46 189.32 230.95 189.14 233.90 187.76 C 242.32 183.72 248.50 175.47 257.88 173.42 C 267.12 173.91 272.99 182.59 281.31 185.62 C 284.65 186.23 288.41 186.26 291.38 184.36 C 297.93 180.73 302.51 173.81 310.01 171.91 C 318.70 171.15 323.76 180.60 331.96 181.76 C 336.75 181.43 340.16 177.46 343.50 174.43 C 347.59 170.44 353.52 166.97 359.39 168.71 C 365.29 171.43 369.62 177.27 376.39 178.12 C 382.54 178.76 388.12 175.28 392.97 171.92 C 405.00 163.42 415.87 153.41 427.79 144.77 M 454.71 135.16 C 432.40 144.92 415.52 163.13 395.80 176.87 C 389.51 181.25 381.96 185.12 374.06 183.39 C 367.04 182.23 362.38 176.35 356.14 173.51 C 347.55 175.69 343.38 184.71 335.00 187.37 C 332.60 187.35 330.10 187.62 327.83 186.67 C 321.91 184.76 317.78 179.61 312.01 177.42 C 307.82 177.76 304.87 181.35 301.74 183.79 C 296.50 188.22 290.08 192.82 282.85 191.92 C 274.25 190.25 268.15 183.35 260.55 179.55 C 256.99 178.09 253.80 181.27 250.95 182.98 C 243.62 187.94 236.50 195.47 226.92 194.82 C 220.28 194.50 215.82 188.98 210.85 185.31 C 208.30 183.04 205.13 185.40 202.74 186.72 C 195.95 190.83 189.58 197.81 180.90 196.64 C 172.86 195.87 168.11 188.02 160.95 185.46 C 154.36 188.54 149.70 195.36 142.13 196.44 C 133.24 197.25 126.39 190.42 118.36 187.91 C 114.95 186.67 112.16 189.76 109.82 191.76 C 104.62 196.18 99.94 202.03 92.97 203.61 C 85.44 204.76 77.64 205.58 70.71 208.99 C 67.35 210.69 64.21 213.87 64.22 217.87 C 64.10 227.21 64.22 236.55 64.18 245.88 C 329.39 245.88 594.61 245.88 859.82 245.88 C 859.78 236.56 859.89 227.24 859.78 217.93 C 859.81 213.87 856.62 210.66 853.21 208.95 C 846.11 205.44 838.08 204.79 830.39 203.47 C 821.91 201.06 817.00 192.99 809.87 188.40 C 807.41 186.66 804.47 188.28 802.08 189.29 C 795.63 192.25 789.38 197.14 781.90 196.45 C 775.61 195.47 771.05 190.67 766.09 187.13 C 764.63 186.20 762.76 184.61 761.11 186.12 C 754.65 189.97 749.21 197.06 741.00 196.73 C 731.38 196.56 725.37 187.64 716.84 184.54 C 714.27 183.59 712.30 186.06 710.48 187.43 C 705.77 191.81 699.77 196.16 692.95 194.66 C 683.00 192.55 676.38 183.96 667.52 179.65 C 664.71 178.10 661.96 180.31 659.65 181.72 C 653.50 185.69 647.66 191.13 640.10 192.03 C 631.36 192.32 624.63 185.76 618.40 180.52 C 616.09 178.86 613.06 176.15 610.18 178.20 C 603.48 181.96 597.44 188.69 588.99 187.38 C 580.61 184.71 576.45 175.68 567.84 173.51 C 561.41 176.50 556.52 182.65 549.14 183.53 C 539.36 185.18 530.91 178.90 523.45 173.51 C 505.80 160.22 489.76 144.14 469.28 135.15 C 464.69 132.86 459.31 132.87 454.71 135.16 Z" />
<path fill="#1e2223" opacity="1.00" d=" M 58.60 264.71 C 182.38 264.68 306.17 264.63 429.95 264.74 C 429.87 269.47 429.63 274.34 427.82 278.77 C 425.43 284.58 419.69 288.81 413.43 289.39 C 403.08 290.50 393.03 287.05 382.86 285.73 C 377.35 284.95 371.32 285.24 366.65 288.59 C 360.96 292.11 357.93 299.03 351.42 301.33 C 346.01 303.33 340.26 301.45 335.00 299.93 C 328.29 297.78 321.16 295.21 314.05 296.96 C 301.57 300.20 292.34 310.42 279.99 313.95 C 267.68 317.29 256.37 307.55 244.08 310.21 C 230.30 313.38 220.90 326.06 206.83 328.45 C 193.87 330.55 182.02 321.87 169.11 323.51 C 158.40 325.18 154.91 338.77 143.98 339.99 C 131.47 340.81 120.79 330.89 108.23 332.19 C 97.79 333.84 93.38 345.00 84.47 349.33 C 76.30 352.71 67.08 352.73 58.57 350.70 C 58.10 365.29 58.48 379.88 58.33 394.47 C 66.61 394.83 74.84 393.12 82.71 390.68 C 91.48 386.95 98.29 379.80 106.98 375.91 C 110.88 374.08 115.59 374.45 119.25 376.71 C 123.46 378.99 127.83 382.79 132.97 381.23 C 140.33 378.78 144.62 371.06 152.32 369.20 C 162.85 366.87 173.63 371.50 184.18 369.10 C 190.97 366.93 195.66 360.10 203.12 359.69 C 211.32 360.00 218.13 366.52 226.48 365.85 C 236.22 364.32 242.87 355.71 252.33 353.42 C 261.96 351.44 271.21 357.28 280.85 355.67 C 289.51 353.90 294.77 345.15 303.55 343.71 C 313.22 342.45 322.13 348.53 331.79 347.53 C 340.06 346.39 344.45 337.17 352.91 336.47 C 364.00 335.56 374.74 342.13 385.84 339.10 C 393.28 336.35 396.63 328.01 403.92 324.95 C 413.41 320.82 424.01 322.56 434.03 321.57 C 441.09 320.99 448.63 319.90 454.31 315.29 C 457.86 312.49 459.75 308.24 461.35 304.13 C 463.01 309.12 465.85 314.02 470.62 316.60 C 479.25 321.47 489.51 321.48 499.14 321.93 C 507.06 322.20 515.70 321.93 522.64 326.39 C 528.68 330.12 532.04 337.62 539.30 339.43 C 550.47 342.05 561.23 334.82 572.43 336.66 C 579.83 338.14 583.97 345.76 591.29 347.39 C 601.27 348.96 610.48 342.40 620.45 343.71 C 629.23 345.15 634.49 353.90 643.15 355.67 C 652.79 357.28 662.02 351.45 671.65 353.41 C 681.06 355.69 687.68 364.20 697.34 365.83 C 705.75 366.63 712.62 360.00 720.88 359.69 C 728.61 360.10 733.35 367.44 740.55 369.30 C 750.40 371.07 760.28 367.47 770.15 368.85 C 776.65 369.92 781.21 375.02 786.24 378.79 C 789.56 381.40 794.33 382.61 798.19 380.43 C 803.17 377.96 808.05 373.54 814.05 374.97 C 825.73 378.29 833.56 389.39 845.58 391.96 C 852.16 393.54 858.87 394.86 865.68 394.47 C 865.51 379.88 865.91 365.28 865.42 350.70 C 857.69 352.58 849.45 352.63 841.83 350.22 C 831.76 347.13 827.63 335.20 817.31 332.53 C 809.06 330.59 801.21 335.03 793.57 337.47 C 788.28 339.23 782.41 341.35 776.92 339.21 C 768.30 336.19 764.88 325.62 755.68 323.66 C 742.43 321.45 730.22 330.72 716.93 328.41 C 702.68 325.87 693.18 312.75 679.00 310.05 C 667.93 308.12 657.96 315.89 646.90 314.47 C 638.64 313.45 631.92 308.12 624.96 304.05 C 618.83 300.44 612.38 296.40 605.04 296.38 C 594.86 296.27 585.80 302.95 575.57 302.07 C 565.98 300.94 562.64 289.94 554.05 286.80 C 545.03 283.41 535.48 287.05 526.41 288.38 C 517.95 289.77 507.79 291.37 500.79 285.13 C 494.86 280.19 494.06 271.91 494.05 264.72 C 605.71 264.65 717.37 264.71 829.03 264.69 C 841.08 264.79 853.14 264.48 865.18 264.82 C 865.79 292.19 865.27 319.62 865.44 347.02 C 866.56 368.32 865.78 389.67 866.01 411.00 C 866.02 476.68 865.99 542.37 866.02 608.05 C 865.02 636.02 865.58 664.11 862.15 691.95 C 857.31 740.49 839.27 786.67 816.49 829.44 C 798.66 862.64 777.06 893.82 752.16 922.11 C 702.69 978.45 640.39 1022.75 572.75 1054.69 C 537.12 1071.71 499.88 1085.19 461.99 1096.21 C 419.33 1083.82 377.53 1068.21 337.86 1048.16 C 288.71 1023.48 242.70 992.21 202.81 954.26 C 150.91 905.14 110.00 844.53 83.64 778.13 C 76.81 761.42 71.68 744.08 67.49 726.55 C 61.86 701.77 59.95 676.33 58.94 651.01 C 58.62 637.66 58.69 624.31 57.99 610.98 C 57.98 533.99 57.99 457.00 57.99 380.01 C 58.03 369.62 57.75 359.23 58.51 348.86 C 58.64 320.81 58.45 292.76 58.60 264.71 M 448.23 359.00 C 447.26 363.23 448.36 367.72 447.11 371.86 C 444.42 374.96 440.92 377.67 440.00 381.91 C 437.91 390.22 440.01 399.29 436.35 407.29 C 431.32 417.71 426.91 428.49 423.91 439.67 C 420.42 456.10 420.39 473.06 416.62 489.44 C 415.20 495.20 413.49 501.22 409.20 505.56 C 408.86 502.96 408.54 500.37 408.12 497.78 C 407.01 488.19 403.93 478.93 400.03 470.13 C 396.08 461.20 393.14 451.72 392.36 441.95 C 390.49 427.39 392.82 412.75 394.67 398.31 C 395.69 393.90 396.02 389.37 397.03 384.96 C 385.10 394.14 374.43 405.60 368.35 419.53 C 361.20 435.29 360.37 453.03 362.14 470.01 C 363.60 488.62 367.78 507.47 364.08 526.08 C 363.35 530.50 361.21 534.54 360.65 538.99 C 360.41 539.22 359.93 539.66 359.69 539.89 C 358.80 534.58 357.81 529.25 355.78 524.25 C 351.41 512.07 342.99 501.72 339.65 489.13 C 336.61 478.88 336.70 468.00 338.02 457.47 C 339.72 444.57 343.23 431.98 347.66 419.77 C 339.28 426.63 331.68 434.46 324.98 442.96 C 314.02 456.80 306.73 474.13 307.22 491.98 C 306.90 503.76 308.06 515.48 308.75 527.22 C 309.98 539.50 308.48 551.88 306.05 563.93 C 302.84 580.19 295.36 595.16 291.36 611.20 C 287.56 625.43 288.04 640.28 288.22 654.86 C 289.02 668.54 291.77 682.06 295.80 695.14 C 306.83 729.39 330.11 758.90 359.08 779.90 C 386.96 800.31 419.59 813.63 453.24 820.97 C 458.92 822.56 464.56 820.01 470.11 818.98 C 485.53 814.82 500.86 810.00 515.32 803.18 C 548.88 788.11 579.44 764.85 599.89 733.98 C 620.70 703.13 629.54 664.85 625.97 627.93 C 624.47 603.81 611.19 582.56 607.49 558.90 C 605.21 547.41 605.56 535.67 605.74 524.03 C 606.98 506.48 609.71 488.37 604.57 471.16 C 598.25 450.42 583.33 433.57 567.02 419.88 C 570.63 430.89 574.50 441.99 575.72 453.56 C 576.43 454.08 577.14 454.60 577.87 455.12 C 577.45 454.88 576.61 454.41 576.19 454.17 C 577.61 464.84 578.34 475.86 575.63 486.39 C 571.76 503.61 558.62 517.14 555.85 534.74 C 555.49 536.25 555.14 537.75 554.80 539.28 C 552.07 533.55 550.55 527.31 549.70 521.05 C 547.23 502.64 551.84 484.33 552.67 465.98 C 552.77 454.17 553.67 442.08 550.20 430.61 C 545.23 412.22 533.03 396.36 517.75 385.26 C 518.29 389.08 518.96 392.87 519.58 396.67 C 522.20 414.22 524.46 432.27 521.03 449.88 C 519.45 458.49 516.14 466.64 512.67 474.64 C 508.46 484.48 506.10 495.11 505.79 505.82 C 501.34 501.99 499.70 496.16 498.26 490.71 C 494.46 474.71 494.20 458.14 491.11 442.01 C 488.43 429.73 483.35 418.14 478.00 406.82 C 474.12 398.09 477.57 387.99 473.59 379.33 C 472.18 375.86 468.31 374.18 466.96 370.72 C 466.38 366.86 466.99 362.91 466.37 359.05 C 465.38 350.25 461.13 342.32 457.13 334.58 C 453.62 342.50 449.16 350.23 448.23 359.00 M 203.44 421.49 C 195.99 425.51 190.53 432.94 188.94 441.26 C 187.62 446.87 189.05 452.53 189.49 458.12 C 186.28 471.10 179.75 483.03 176.69 496.09 C 175.13 492.96 174.02 489.51 174.20 485.98 C 174.98 478.86 178.98 472.31 178.52 465.02 C 178.22 459.57 174.51 455.19 172.93 450.12 C 171.46 446.17 171.45 441.92 171.16 437.78 C 162.24 448.75 157.76 463.83 161.22 477.75 C 162.97 483.03 165.05 488.92 169.94 492.09 C 173.13 493.87 173.76 497.78 175.21 500.83 C 170.89 514.25 167.91 528.05 165.23 541.88 C 160.87 536.20 161.41 528.72 162.02 522.01 C 162.68 515.74 161.03 509.13 156.51 504.57 C 152.00 499.90 149.40 493.85 148.01 487.58 C 141.50 501.17 140.52 518.36 148.78 531.43 C 151.55 535.16 154.66 539.16 159.23 540.71 C 162.34 541.35 162.92 544.88 164.44 547.17 C 162.22 562.29 159.87 577.49 160.16 592.81 C 159.83 592.61 159.18 592.21 158.85 592.01 C 155.22 584.60 157.29 575.80 153.57 568.45 C 150.92 562.99 145.10 560.26 141.58 555.50 C 139.44 552.84 138.15 549.65 136.85 546.53 C 134.30 552.33 134.22 558.81 134.47 565.03 C 135.00 576.35 140.45 587.71 150.01 594.09 C 152.80 596.17 156.39 596.34 159.58 597.48 C 159.05 616.77 160.47 636.05 162.99 655.17 C 155.27 647.41 159.28 635.19 153.63 626.44 C 150.95 622.14 146.27 619.76 142.91 616.07 C 139.65 613.03 137.72 608.95 135.91 604.96 C 132.54 616.10 133.14 628.48 137.96 639.10 C 141.64 646.54 147.57 653.50 155.59 656.28 C 159.22 656.57 163.92 658.28 164.27 662.51 C 166.67 678.44 170.59 694.09 175.27 709.50 C 171.92 707.41 168.76 704.77 166.87 701.25 C 163.64 694.78 163.24 687.05 158.71 681.21 C 155.43 677.26 150.28 675.72 146.30 672.64 C 142.62 670.29 140.30 666.51 137.34 663.42 C 137.15 669.77 136.74 676.29 138.64 682.46 C 141.00 690.42 145.13 698.15 151.66 703.46 C 156.56 707.32 162.51 710.47 168.95 709.85 C 172.35 711.33 176.86 713.00 177.78 717.03 C 182.32 731.15 188.20 744.82 194.33 758.31 C 191.35 757.00 188.51 755.25 186.42 752.73 C 182.05 747.14 180.75 739.54 175.34 734.70 C 171.33 730.99 165.62 730.54 160.94 728.06 C 157.01 726.19 153.92 723.08 150.76 720.18 C 151.43 734.12 157.79 748.36 169.66 756.24 C 175.04 759.43 181.41 762.12 187.78 760.77 C 190.91 759.99 194.30 761.40 196.76 763.24 C 203.98 777.18 211.67 790.94 220.61 803.87 C 217.12 802.83 213.50 801.77 210.60 799.47 C 204.91 794.73 202.66 786.83 196.20 782.87 C 191.58 779.80 185.79 780.07 180.68 778.34 C 176.78 777.24 173.39 774.94 170.15 772.58 C 172.42 788.33 184.17 803.18 199.96 807.05 C 204.09 807.92 208.60 808.36 212.59 806.64 C 216.01 805.05 219.66 807.08 223.10 807.64 C 231.72 820.11 241.30 831.86 251.19 843.33 C 246.41 842.79 241.32 841.69 237.77 838.20 C 232.82 833.52 228.88 827.43 222.49 824.52 C 217.25 821.98 211.27 823.12 205.70 822.18 C 200.91 821.52 196.52 819.37 192.27 817.18 C 195.80 827.35 202.00 836.85 210.97 843.01 C 219.00 848.53 229.10 851.77 238.85 849.84 C 241.54 849.46 243.64 847.59 246.15 846.75 C 249.05 846.59 251.94 846.98 254.84 847.04 C 265.73 858.61 277.18 869.71 289.58 879.67 C 292.09 877.75 294.81 876.13 297.64 874.74 C 283.33 862.98 269.70 850.37 257.13 836.75 C 256.32 836.06 255.65 834.75 256.76 833.98 C 262.42 828.64 264.79 820.56 264.78 812.95 C 265.54 799.60 259.04 786.47 249.12 777.78 C 249.52 782.15 249.91 786.60 248.98 790.94 C 248.03 796.33 244.95 801.32 245.32 806.93 C 245.74 815.73 253.13 822.70 252.60 831.66 C 243.49 821.55 235.10 810.79 227.19 799.72 C 225.75 798.41 226.99 796.99 228.20 796.23 C 233.29 792.72 235.41 786.52 236.96 780.82 C 240.33 766.33 235.60 750.28 225.17 739.71 C 225.14 743.85 225.23 748.05 224.03 752.06 C 222.66 757.78 218.90 762.90 219.14 768.98 C 218.77 777.83 225.15 785.49 224.11 794.40 C 223.02 793.29 221.99 792.12 221.13 790.83 C 214.39 780.68 208.26 770.14 202.57 759.38 C 201.89 757.90 200.29 755.52 202.31 754.40 C 209.96 750.47 214.12 742.25 216.16 734.24 C 219.15 721.55 216.44 707.60 209.01 696.90 C 208.53 701.61 207.72 706.39 205.45 710.61 C 202.79 715.94 198.20 720.73 198.36 727.06 C 197.63 735.56 202.48 744.02 199.17 752.36 C 191.53 737.08 185.14 721.13 180.22 704.77 C 181.30 704.11 182.35 703.42 183.53 702.96 C 190.29 700.98 194.76 694.96 198.32 689.25 C 205.15 676.80 205.11 661.29 199.99 648.23 C 198.30 652.08 197.05 656.18 194.57 659.63 C 191.34 664.37 186.31 667.88 184.33 673.45 C 180.63 682.29 185.29 693.14 179.07 701.13 C 174.71 686.07 170.91 670.78 169.14 655.18 C 171.52 652.44 174.98 651.74 178.33 650.92 C 183.94 648.43 188.45 643.86 191.87 638.84 C 199.09 627.52 201.63 612.95 197.55 600.05 C 195.40 604.76 192.70 609.34 188.76 612.79 C 184.48 616.56 179.29 620.05 177.63 625.84 C 174.82 634.40 176.45 645.23 168.51 651.39 C 166.13 635.22 164.73 618.84 164.90 602.49 C 166.46 599.97 169.44 598.48 171.76 596.63 C 178.69 597.39 184.55 592.79 189.41 588.46 C 199.81 578.12 203.99 562.73 202.27 548.37 C 199.20 551.90 196.84 556.14 192.91 558.85 C 188.72 562.01 183.57 564.15 180.58 568.68 C 176.62 574.61 176.39 582.06 173.40 588.43 C 171.50 592.15 168.18 594.85 164.87 597.30 C 164.81 581.08 166.25 564.88 168.58 548.84 C 170.44 547.58 172.31 546.32 174.20 545.11 C 181.23 546.08 188.04 542.80 193.42 538.53 C 204.81 529.28 210.22 514.28 210.24 499.89 C 207.26 503.04 204.51 506.52 200.78 508.84 C 196.02 512.09 190.00 513.65 186.32 518.33 C 182.21 523.52 180.77 530.14 177.82 535.95 C 176.04 539.56 172.61 541.84 169.41 544.06 C 171.05 529.04 175.21 514.46 178.94 499.86 C 180.55 499.10 182.17 498.35 183.80 497.64 C 185.32 498.05 186.90 498.58 188.49 498.21 C 195.51 496.90 201.82 492.91 206.83 487.92 C 215.34 478.82 220.13 466.21 219.85 453.77 C 216.90 456.85 214.12 460.20 210.38 462.38 C 205.69 465.41 199.73 466.59 196.10 471.12 C 189.49 478.32 189.69 490.31 180.47 495.32 C 183.85 483.41 188.26 471.75 193.14 460.41 C 198.49 457.96 203.92 455.35 207.86 450.81 C 217.98 440.36 221.65 424.71 219.17 410.58 C 214.62 415.15 209.04 418.40 203.44 421.49 M 706.49 423.66 C 703.65 424.54 702.72 427.56 702.22 430.16 C 699.51 431.26 696.50 432.33 694.93 434.99 C 693.75 436.41 695.04 438.18 694.96 439.78 C 693.51 441.21 691.39 442.06 690.43 443.92 C 690.32 446.96 693.01 449.02 694.69 451.22 C 690.41 454.14 689.72 459.82 689.76 464.59 C 692.38 462.04 695.43 460.02 698.64 458.30 C 699.98 461.52 703.05 463.56 706.13 464.93 C 712.11 467.38 718.75 468.19 725.15 467.30 C 726.70 470.99 728.22 474.71 729.57 478.49 C 725.46 478.47 721.68 481.67 722.14 485.99 C 718.08 487.39 712.51 490.87 715.13 495.91 C 713.57 497.56 711.85 499.06 710.53 500.91 C 711.87 503.38 713.53 505.67 715.49 507.70 C 711.16 510.50 711.43 516.27 711.55 520.80 C 714.03 518.34 716.92 516.38 719.73 514.33 C 724.58 522.14 734.91 522.40 743.11 522.62 C 744.17 528.47 745.66 534.22 746.60 540.09 C 744.87 540.25 743.12 540.20 741.46 540.69 C 739.42 541.76 739.10 544.26 738.01 546.08 C 735.37 547.38 731.90 547.52 730.14 550.19 C 728.91 551.45 729.91 553.36 729.86 554.89 C 728.22 555.92 726.47 556.82 724.97 558.06 C 723.69 561.15 726.78 563.84 728.10 566.38 C 723.43 568.80 722.35 574.33 721.68 579.06 C 724.21 577.13 726.97 575.51 729.95 574.37 C 730.45 574.66 731.45 575.24 731.95 575.53 C 736.16 582.19 744.54 584.29 751.82 585.63 C 752.58 590.58 752.18 595.59 752.47 600.57 C 750.83 600.24 749.10 599.77 747.46 600.34 C 745.21 600.86 744.35 603.23 742.84 604.71 C 740.28 605.79 736.99 604.71 734.90 606.95 C 733.04 607.96 733.44 610.13 733.29 611.90 C 731.50 612.50 729.67 613.02 728.00 613.92 C 726.12 616.76 728.57 619.88 729.32 622.69 C 724.26 624.23 722.10 629.39 720.59 633.98 C 723.74 632.15 727.27 631.27 730.79 630.50 C 732.53 639.09 741.41 643.04 748.64 646.23 C 748.15 650.57 747.30 654.86 746.62 659.17 C 745.03 660.43 743.79 663.11 741.40 662.45 C 738.30 661.85 735.09 662.00 732.41 663.82 C 732.38 664.46 732.33 665.73 732.30 666.36 C 731.98 666.64 731.36 667.20 731.05 667.48 C 729.52 667.49 728.00 667.50 726.49 667.51 C 723.37 669.68 724.62 673.61 724.99 676.76 C 719.77 677.46 716.57 681.98 713.87 686.03 C 717.32 685.02 720.91 684.84 724.48 685.11 C 723.48 692.92 730.09 698.48 735.61 702.79 C 733.11 708.92 730.85 715.16 727.93 721.12 L 727.13 721.48 C 723.49 719.13 717.38 717.61 715.18 722.59 C 712.87 722.57 710.58 722.35 708.29 722.33 C 706.99 725.00 706.48 727.94 706.13 730.87 C 700.81 729.84 696.12 733.34 692.70 737.00 C 696.43 736.93 700.22 737.25 703.59 739.01 C 699.92 745.58 704.91 752.64 708.70 757.92 C 706.55 761.63 704.14 765.20 702.06 768.96 C 699.77 768.79 697.77 769.87 695.90 771.04 C 692.17 768.53 685.62 766.13 683.61 771.86 C 681.47 771.50 679.34 770.88 677.16 771.04 C 674.65 772.99 674.83 776.50 674.03 779.30 C 668.78 778.07 664.25 781.50 660.59 784.78 C 664.30 784.84 667.73 786.23 671.23 787.24 C 667.14 794.08 672.15 801.77 676.21 807.33 C 673.49 811.35 670.49 815.16 667.57 819.03 L 667.74 819.41 C 665.31 820.10 662.72 820.36 660.58 821.80 C 657.40 820.74 654.42 818.54 650.89 819.37 C 649.14 819.21 648.87 821.48 647.93 822.45 C 645.80 822.13 643.70 821.33 641.53 821.54 C 639.04 822.93 638.95 826.08 638.23 828.51 C 638.81 829.34 639.38 830.18 639.96 831.04 C 638.00 830.47 636.10 829.24 633.99 829.63 C 630.29 830.19 627.37 832.67 624.54 834.91 C 628.16 834.90 631.43 836.63 634.85 837.39 C 632.19 843.70 634.68 850.32 637.97 855.84 C 633.16 861.71 627.73 867.05 623.10 873.07 C 625.85 874.36 628.54 875.79 631.14 877.38 C 635.75 872.48 640.11 867.34 644.52 862.25 C 653.43 865.41 663.89 865.72 671.90 860.05 C 675.79 859.93 679.67 859.66 683.57 859.69 C 681.43 857.07 679.18 854.48 676.35 852.58 C 679.34 850.72 682.13 848.40 683.40 845.01 C 682.19 843.00 680.89 841.04 679.54 839.14 C 680.35 836.94 682.13 834.54 680.71 832.20 C 679.65 828.90 675.88 828.26 673.53 826.23 C 677.08 821.66 680.61 817.08 683.83 812.28 C 692.07 814.60 701.19 813.77 708.40 808.97 L 707.68 808.59 C 711.75 808.76 715.81 808.36 719.88 808.21 C 717.74 805.49 715.30 803.01 712.52 800.95 C 715.57 799.72 718.41 797.24 719.21 793.95 C 719.08 791.44 716.92 789.78 715.60 787.85 C 716.46 785.53 717.78 782.96 716.52 780.53 C 715.35 777.09 711.27 776.79 708.97 774.48 C 711.30 770.64 713.55 766.74 715.77 762.83 C 724.37 765.68 734.45 764.63 741.53 758.67 C 745.31 758.43 749.08 758.10 752.88 758.01 C 751.30 754.90 748.36 752.90 745.56 751.00 C 748.16 748.92 751.60 746.76 751.89 743.11 C 751.32 740.97 749.29 739.68 748.20 737.83 C 748.41 735.37 749.87 732.83 748.70 730.43 C 747.57 727.44 744.19 726.76 741.75 725.29 C 739.79 723.89 738.23 722.02 736.35 720.55 C 738.40 715.30 740.41 710.03 742.22 704.69 C 751.16 705.06 760.33 701.58 765.75 694.24 C 769.18 693.01 772.63 691.79 776.04 690.46 C 776.02 690.28 775.98 689.93 775.96 689.75 C 773.21 688.23 770.31 687.02 767.40 685.89 C 769.29 683.60 771.25 681.07 771.48 677.99 C 771.59 674.49 765.91 674.50 766.50 671.01 C 767.33 667.30 764.42 663.76 760.76 663.36 C 757.66 663.18 755.02 661.59 752.40 660.11 C 753.18 655.65 753.81 651.16 754.52 646.69 C 762.91 644.59 769.28 637.90 772.12 629.88 C 775.44 627.95 778.57 625.72 781.61 623.38 C 778.40 622.62 775.20 621.83 771.93 621.46 C 773.11 618.98 774.53 616.35 774.26 613.52 C 773.83 610.41 770.13 610.33 767.99 608.97 C 767.21 607.08 767.53 604.67 765.83 603.23 C 763.69 600.85 760.33 601.45 757.52 601.57 C 757.61 596.03 757.46 590.48 757.39 584.94 C 765.35 581.34 770.18 573.33 771.50 564.92 C 774.39 562.48 776.83 559.56 779.50 556.89 C 775.99 556.69 772.47 556.43 768.97 556.74 C 770.90 555.20 770.58 551.49 770.37 549.08 C 769.90 545.60 765.83 546.20 763.39 545.30 C 762.10 543.42 761.64 540.85 759.54 539.63 C 757.08 538.79 754.48 539.45 752.00 539.67 C 750.90 534.56 749.79 529.46 748.59 524.39 C 748.46 523.14 747.77 521.77 748.37 520.58 C 750.50 518.31 753.04 516.34 754.57 513.57 C 757.32 509.22 757.63 503.95 758.31 498.99 L 756.88 499.63 C 760.34 497.15 761.98 492.84 764.62 489.58 C 761.46 489.89 758.27 490.14 755.21 491.05 C 755.25 488.11 755.67 484.67 753.64 482.26 C 751.88 480.01 748.58 481.87 746.47 480.57 C 745.15 478.48 743.67 476.50 741.35 475.47 C 738.82 475.49 736.61 476.72 734.34 477.64 C 732.63 473.13 730.81 468.66 728.89 464.24 C 734.69 459.60 737.25 452.20 737.63 444.98 C 740.19 442.01 742.46 438.78 745.09 435.86 C 741.79 436.18 738.46 436.25 735.21 436.92 C 735.32 433.90 736.00 430.52 734.07 427.91 C 732.20 426.11 729.33 426.76 726.99 426.34 C 725.93 423.01 722.63 419.62 718.88 421.08 C 715.00 422.98 710.61 422.74 706.49 423.66 M 364.71 851.90 C 347.84 856.48 331.15 861.92 315.25 869.23 C 307.99 872.46 300.71 875.74 294.02 880.05 C 291.09 881.92 288.20 884.47 287.43 888.02 C 286.70 892.02 289.13 895.62 291.32 898.73 C 298.11 908.51 304.63 918.96 314.50 925.98 C 314.17 920.76 317.71 916.56 321.98 914.10 C 342.48 901.10 366.36 894.92 389.93 890.28 C 422.55 884.24 455.90 883.43 488.96 884.94 C 509.17 886.26 529.40 888.63 549.10 893.53 C 566.84 897.54 584.33 903.49 600.02 912.81 C 604.89 915.57 609.96 919.76 609.50 925.98 C 619.37 918.96 625.90 908.50 632.70 898.71 C 634.87 895.61 637.28 892.04 636.57 888.06 C 635.56 883.44 631.27 880.75 627.50 878.50 C 617.51 872.74 606.83 868.32 596.22 863.85 C 581.12 858.20 565.76 853.12 549.99 849.71 C 531.51 845.61 512.79 842.31 493.88 841.13 C 485.64 839.94 477.27 840.76 469.01 839.80 C 463.99 839.64 458.95 839.58 453.93 839.88 C 446.31 840.75 438.60 839.98 430.99 841.04 C 408.61 842.50 386.47 846.59 364.71 851.90 M 439.99 887.21 L 440.10 887.40 C 438.24 887.69 434.55 886.92 434.80 889.87 C 434.75 905.08 434.84 920.29 434.77 935.50 C 431.23 935.56 427.73 936.05 424.26 936.66 C 427.86 942.73 431.72 948.72 434.66 955.13 C 435.11 965.40 434.46 975.73 434.94 986.00 C 436.54 990.41 439.46 994.18 441.66 998.29 C 439.49 1001.87 436.38 1004.94 434.87 1008.88 C 434.63 1025.11 434.93 1041.35 434.73 1057.59 C 438.75 1057.78 442.63 1056.56 446.62 1056.26 C 446.62 1056.11 446.62 1055.80 446.62 1055.65 C 449.31 1055.57 452.00 1055.44 454.70 1055.25 C 461.31 1055.05 468.04 1054.86 474.55 1056.33 C 474.61 1054.66 474.68 1052.99 474.76 1051.35 C 471.88 1047.93 469.07 1044.48 466.17 1041.09 C 469.02 1040.68 471.87 1040.27 474.73 1039.88 C 474.64 1032.58 474.73 1025.29 474.66 1017.99 C 474.73 1016.18 474.44 1014.18 475.62 1012.66 C 479.35 1006.85 483.08 1001.04 486.86 995.27 C 482.25 992.38 477.52 989.69 472.98 986.69 C 473.83 973.37 473.86 960.03 474.53 946.71 C 471.60 944.22 468.63 941.76 465.88 939.07 C 468.50 937.96 471.08 936.74 473.60 935.41 C 473.44 933.29 473.41 931.17 473.07 929.09 C 471.06 926.94 468.00 926.12 465.49 924.69 C 468.29 922.80 471.58 921.88 474.71 920.69 C 474.67 909.51 474.68 898.33 474.70 887.14 C 469.90 887.30 465.10 886.62 460.31 887.04 C 453.53 886.69 446.77 887.41 439.99 887.21 M 223.86 953.06 C 233.97 952.45 244.05 951.52 254.17 951.15 C 256.37 950.78 258.60 950.60 260.83 950.44 C 260.97 961.27 260.76 972.11 260.94 982.94 C 275.54 968.85 292.01 956.76 309.61 946.68 C 324.53 937.74 340.45 930.66 356.06 923.05 C 360.10 920.68 365.28 919.29 367.69 914.95 C 366.45 914.55 365.22 914.15 364.00 913.74 C 361.67 913.66 359.34 913.66 357.02 913.72 C 345.00 916.00 336.17 925.38 324.74 929.08 C 319.40 930.99 313.59 929.11 309.45 925.52 C 301.48 918.98 295.97 910.11 289.99 901.86 C 265.02 914.51 241.51 931.11 223.86 953.06 M 323.44 916.43 C 319.96 918.49 316.49 921.86 317.48 926.30 C 318.62 926.61 319.77 926.94 320.91 927.29 C 325.53 926.35 329.78 924.27 333.70 921.71 C 343.16 916.07 353.29 909.27 364.89 910.99 C 362.94 907.45 360.53 904.21 357.88 901.18 C 345.74 904.57 334.15 909.82 323.44 916.43 M 559.08 910.97 C 562.80 910.88 566.63 910.54 570.24 911.68 C 579.84 914.43 587.79 920.74 596.58 925.23 C 599.60 926.95 603.12 926.94 606.48 926.58 C 607.48 922.39 604.62 918.88 601.22 916.88 C 590.37 909.99 578.50 904.67 566.12 901.18 C 563.46 904.20 561.08 907.46 559.08 910.97 M 634.03 901.85 C 627.74 910.44 622.04 919.82 613.46 926.36 C 609.47 929.48 604.08 930.78 599.21 929.06 C 587.80 925.36 578.98 915.97 566.95 913.74 C 564.61 913.66 562.28 913.65 559.95 913.71 C 558.72 914.14 557.48 914.57 556.25 915.01 C 559.16 919.62 564.79 921.10 569.27 923.72 C 583.82 930.69 598.52 937.43 612.49 945.55 C 630.65 955.96 647.95 968.13 662.86 982.90 C 663.47 972.09 662.92 961.26 663.17 950.44 C 665.38 950.60 667.59 950.78 669.79 951.14 C 679.92 951.53 690.02 952.45 700.14 953.06 C 682.50 931.11 658.98 914.53 634.03 901.85 M 443.34 1059.43 C 431.19 1062.21 418.51 1062.01 406.27 1059.90 C 406.23 1063.08 406.22 1066.26 406.25 1069.45 C 417.11 1069.62 428.01 1071.57 438.85 1069.99 C 448.79 1068.19 458.98 1066.67 469.07 1068.13 C 474.74 1068.56 480.21 1070.40 485.91 1070.54 C 493.78 1070.83 501.60 1069.72 509.44 1069.36 C 509.41 1066.12 509.41 1062.89 509.41 1059.67 C 498.73 1059.81 487.91 1062.29 477.36 1059.63 C 466.23 1056.84 454.52 1057.09 443.34 1059.43 Z" />
<path fill="#1e2223" opacity="1.00" d=" M 394.12 553.21 C 411.34 537.43 434.09 528.73 457.08 526.01 C 480.97 528.64 504.67 537.97 522.13 554.83 C 527.36 559.41 531.53 565.48 532.85 572.40 C 533.89 577.03 533.10 581.93 534.56 586.48 C 535.65 589.59 539.25 590.34 542.13 590.74 C 552.33 591.99 562.90 591.00 572.76 594.40 C 585.27 598.32 596.57 608.00 600.06 620.94 C 602.25 628.47 600.30 636.68 596.04 643.11 C 590.33 651.81 581.33 657.54 572.35 662.39 C 566.55 665.23 567.15 672.55 566.77 677.98 C 566.76 689.14 564.81 701.39 556.51 709.57 C 546.18 719.44 531.16 721.93 517.39 721.75 C 515.13 725.68 513.80 730.71 516.00 734.98 C 520.25 742.96 530.55 745.69 534.01 754.28 C 521.71 754.28 509.48 755.51 497.19 755.46 C 470.03 756.05 442.86 756.01 415.69 755.43 C 404.02 755.53 392.41 754.24 380.73 754.28 C 383.97 745.21 395.33 742.74 399.02 733.93 C 400.90 729.86 399.04 725.51 397.31 721.77 C 384.05 721.86 369.66 719.77 359.35 710.71 C 352.19 704.71 349.03 695.28 348.23 686.23 C 347.32 679.73 348.51 672.95 346.34 666.65 C 344.69 663.00 340.61 661.60 337.42 659.67 C 328.80 654.69 320.38 648.19 316.22 638.88 C 312.97 632.05 312.89 623.85 315.90 616.92 C 320.62 605.38 331.55 597.21 343.36 593.93 C 353.21 590.90 363.64 592.07 373.71 590.53 C 376.57 590.15 379.79 588.70 380.36 585.54 C 381.29 579.44 380.75 573.00 383.25 567.22 C 385.45 561.61 389.70 557.16 394.12 553.21 M 399.24 552.35 C 393.49 557.29 387.48 562.65 385.11 570.12 C 382.96 575.69 384.39 581.89 382.52 587.51 C 381.22 591.53 376.82 593.20 372.96 593.51 C 365.91 593.91 358.85 594.08 351.82 594.80 C 339.22 596.42 326.90 603.22 320.20 614.24 C 316.04 620.67 315.40 629.08 317.93 636.23 C 322.02 646.12 330.96 652.79 339.91 658.04 C 343.22 659.90 347.32 661.51 348.72 665.39 C 351.37 673.01 349.73 681.22 351.21 689.03 C 352.63 698.55 357.84 707.81 366.43 712.57 C 376.33 717.88 387.85 719.07 398.92 719.15 C 402.48 724.40 403.89 731.70 400.43 737.36 C 396.65 743.31 389.85 746.30 385.40 751.66 C 433.31 754.04 481.33 753.90 529.24 751.66 C 524.10 745.80 516.09 742.47 512.90 735.01 C 511.02 729.69 512.68 723.96 515.36 719.24 C 529.32 718.79 545.53 717.62 555.48 706.49 C 562.97 698.43 564.24 686.93 564.28 676.41 C 564.66 670.92 564.22 663.73 569.88 660.71 C 579.36 655.39 589.37 649.57 594.87 639.79 C 599.48 632.12 599.16 622.08 594.55 614.48 C 587.98 603.39 575.66 596.66 563.14 594.82 C 555.79 594.11 548.40 593.95 541.04 593.46 C 537.17 593.20 533.03 591.04 531.93 587.09 C 530.54 581.59 531.44 575.73 529.59 570.32 C 527.56 564.34 523.37 559.41 518.69 555.31 C 505.06 542.65 487.55 534.95 469.61 530.70 C 464.15 529.59 458.55 528.03 452.97 529.19 C 433.56 532.34 414.50 539.76 399.24 552.35 Z" />
<path fill="#1e2223" opacity="1.00" d=" M 449.46 562.26 C 465.09 560.30 481.62 563.41 494.92 572.03 C 512.85 582.89 525.30 602.31 527.69 623.13 C 528.03 631.49 528.48 640.04 526.27 648.20 C 521.67 666.22 509.91 682.46 493.72 691.77 C 481.65 699.28 467.13 702.30 453.02 701.18 C 423.61 699.80 396.99 676.96 390.41 648.37 C 386.30 633.18 388.27 616.79 394.57 602.48 C 404.45 580.96 425.71 564.70 449.46 562.26 M 447.29 565.27 C 425.97 568.61 406.76 583.01 397.66 602.59 C 391.32 614.82 390.12 629.03 391.95 642.51 C 395.72 666.75 413.99 688.13 437.46 695.41 C 456.89 701.88 479.26 698.71 496.09 687.05 C 506.86 679.87 515.15 669.33 520.28 657.51 C 526.92 641.28 527.01 622.52 520.54 606.21 C 514.00 590.43 501.44 577.07 485.70 570.26 C 473.77 564.85 460.22 563.03 447.29 565.27 Z" />
<path fill="#1e2223" opacity="1.00" d=" M 450.51 714.39 C 454.96 713.73 459.86 712.85 464.09 714.84 C 469.17 720.64 473.50 729.57 469.00 736.94 C 465.99 741.39 461.73 745.22 457.06 747.79 C 451.47 743.87 445.09 739.24 443.84 732.04 C 442.88 725.40 446.83 719.51 450.51 714.39 M 452.17 716.92 C 448.96 721.41 445.30 726.62 446.55 732.46 C 448.05 737.92 453.19 741.06 457.05 744.77 C 461.70 741.14 467.40 737.35 468.28 731.01 C 468.41 725.93 465.78 721.13 462.58 717.35 C 459.44 715.51 455.56 716.26 452.17 716.92 Z" />
<path fill="#1e2223" opacity="1.00" d=" M 415.16 718.58 C 420.67 718.16 426.17 717.40 431.69 717.13 C 435.15 721.88 437.91 728.09 436.09 734.03 C 433.99 740.37 428.06 744.15 423.08 748.09 C 418.25 744.26 412.62 740.61 410.26 734.65 C 408.57 730.66 409.52 726.15 411.33 722.39 C 412.16 720.76 412.96 718.51 415.16 718.58 M 414.68 721.57 C 412.65 725.35 411.47 729.88 412.93 734.06 C 414.97 738.69 419.42 741.51 423.06 744.79 C 426.78 741.63 431.05 738.69 433.22 734.17 C 435.03 729.34 433.15 724.16 430.45 720.07 C 425.18 720.45 419.94 721.16 414.68 721.57 Z" />
<path fill="#1e2223" opacity="1.00" d=" M 482.53 717.39 C 485.58 716.64 488.86 717.82 491.99 717.92 C 495.15 718.44 498.65 718.00 501.56 719.40 C 504.76 724.09 506.55 730.52 503.84 735.85 C 501.21 741.16 496.00 744.34 491.65 748.10 C 486.82 744.48 481.17 741.02 478.89 735.13 C 476.76 729.09 478.91 722.39 482.53 717.39 M 481.22 733.73 C 483.27 738.48 487.61 741.71 491.63 744.74 C 495.10 741.57 499.39 738.91 501.39 734.49 C 503.35 730.41 502.07 725.60 499.90 721.89 C 494.81 720.71 489.48 720.72 484.30 720.01 C 481.65 723.94 479.31 728.99 481.22 733.73 Z" />
</g>
<g id="#fefefeff">
<path fill="#fefefe" opacity="1.00" d=" M 454.71 135.16 C 459.31 132.87 464.69 132.86 469.28 135.15 C 489.76 144.14 505.80 160.22 523.45 173.51 C 530.91 178.90 539.36 185.18 549.14 183.53 C 556.52 182.65 561.41 176.50 567.84 173.51 C 576.45 175.68 580.61 184.71 588.99 187.38 C 597.44 188.69 603.48 181.96 610.18 178.20 C 613.06 176.15 616.09 178.86 618.40 180.52 C 624.63 185.76 631.36 192.32 640.10 192.03 C 647.66 191.13 653.50 185.69 659.65 181.72 C 661.96 180.31 664.71 178.10 667.52 179.65 C 676.38 183.96 683.00 192.55 692.95 194.66 C 699.77 196.16 705.77 191.81 710.48 187.43 C 712.30 186.06 714.27 183.59 716.84 184.54 C 725.37 187.64 731.38 196.56 741.00 196.73 C 749.21 197.06 754.65 189.97 761.11 186.12 C 762.76 184.61 764.63 186.20 766.09 187.13 C 771.05 190.67 775.61 195.47 781.90 196.45 C 789.38 197.14 795.63 192.25 802.08 189.29 C 804.47 188.28 807.41 186.66 809.87 188.40 C 817.00 192.99 821.91 201.06 830.39 203.47 C 838.08 204.79 846.11 205.44 853.21 208.95 C 856.62 210.66 859.81 213.87 859.78 217.93 C 859.89 227.24 859.78 236.56 859.82 245.88 C 594.61 245.88 329.39 245.88 64.18 245.88 C 64.22 236.55 64.10 227.21 64.22 217.87 C 64.21 213.87 67.35 210.69 70.71 208.99 C 77.64 205.58 85.44 204.76 92.97 203.61 C 99.94 202.03 104.62 196.18 109.82 191.76 C 112.16 189.76 114.95 186.67 118.36 187.91 C 126.39 190.42 133.24 197.25 142.13 196.44 C 149.70 195.36 154.36 188.54 160.95 185.46 C 168.11 188.02 172.86 195.87 180.90 196.64 C 189.58 197.81 195.95 190.83 202.74 186.72 C 205.13 185.40 208.30 183.04 210.85 185.31 C 215.82 188.98 220.28 194.50 226.92 194.82 C 236.50 195.47 243.62 187.94 250.95 182.98 C 253.80 181.27 256.99 178.09 260.55 179.55 C 268.15 183.35 274.25 190.25 282.85 191.92 C 290.08 192.82 296.50 188.22 301.74 183.79 C 304.87 181.35 307.82 177.76 312.01 177.42 C 317.78 179.61 321.91 184.76 327.83 186.67 C 330.10 187.62 332.60 187.35 335.00 187.37 C 343.38 184.71 347.55 175.69 356.14 173.51 C 362.38 176.35 367.04 182.23 374.06 183.39 C 381.96 185.12 389.51 181.25 395.80 176.87 C 415.52 163.13 432.40 144.92 454.71 135.16 Z" />
<path fill="#fefefe" opacity="1.00" d=" M 706.49 423.66 C 710.61 422.74 715.00 422.98 718.88 421.08 C 722.63 419.62 725.93 423.01 726.99 426.34 C 729.33 426.76 732.20 426.11 734.07 427.91 C 736.00 430.52 735.32 433.90 735.21 436.92 C 730.26 437.94 725.70 440.33 722.02 443.78 C 719.90 439.59 716.02 436.90 712.18 434.45 C 709.32 438.69 705.56 442.80 705.83 448.30 C 701.98 448.65 698.06 449.23 694.69 451.22 C 693.01 449.02 690.32 446.96 690.43 443.92 C 691.39 442.06 693.51 441.21 694.96 439.78 C 695.04 438.18 693.75 436.41 694.93 434.99 C 696.50 432.33 699.51 431.26 702.22 430.16 C 702.72 427.56 703.65 424.54 706.49 423.66 Z" />
<path fill="#fefefe" opacity="1.00" d=" M 734.34 477.64 C 736.61 476.72 738.82 475.49 741.35 475.47 C 743.67 476.50 745.15 478.48 746.47 480.57 C 748.58 481.87 751.88 480.01 753.64 482.26 C 755.67 484.67 755.25 488.11 755.21 491.05 C 750.29 492.31 745.92 495.06 742.30 498.58 C 740.09 494.44 736.02 492.06 732.13 489.77 C 729.51 494.15 725.91 498.46 726.52 503.93 C 722.67 504.59 718.76 505.46 715.49 507.70 C 713.53 505.67 711.87 503.38 710.53 500.91 C 711.85 499.06 713.57 497.56 715.13 495.91 C 712.51 490.87 718.08 487.39 722.14 485.99 C 721.68 481.67 725.46 478.47 729.57 478.49 C 731.16 478.24 732.76 478.01 734.34 477.64 Z" />
<path fill="#fefefe" opacity="1.00" d=" M 752.00 539.67 C 754.48 539.45 757.08 538.79 759.54 539.63 C 761.64 540.85 762.10 543.42 763.39 545.30 C 765.83 546.20 769.90 545.60 770.37 549.08 C 770.58 551.49 770.90 555.20 768.97 556.74 C 764.26 557.38 759.87 559.29 755.97 561.95 C 754.39 557.52 750.75 554.50 747.34 551.50 C 744.23 555.51 739.77 559.07 739.63 564.59 C 735.71 564.46 731.71 564.74 728.10 566.38 C 726.78 563.84 723.69 561.15 724.97 558.06 C 726.47 556.82 728.22 555.92 729.86 554.89 C 729.91 553.36 728.91 551.45 730.14 550.19 C 731.90 547.52 735.37 547.38 738.01 546.08 C 739.10 544.26 739.42 541.76 741.46 540.69 C 743.12 540.20 744.87 540.25 746.60 540.09 C 748.39 539.95 750.19 539.84 752.00 539.67 Z" />
<path fill="#fefefe" opacity="1.00" d=" M 451.03 599.35 C 458.88 594.74 468.42 595.15 476.96 597.37 C 477.93 597.65 478.89 597.96 479.86 598.29 C 481.12 599.06 482.44 599.73 483.80 600.34 C 484.30 600.60 485.29 601.12 485.78 601.38 C 489.74 604.29 493.41 607.54 496.16 611.66 C 498.49 615.15 499.31 619.64 497.24 623.48 C 494.57 627.66 490.43 630.41 486.95 633.83 C 485.74 633.05 484.54 632.29 483.32 631.55 C 481.92 630.86 480.55 630.14 479.18 629.42 C 471.41 628.99 463.61 629.13 455.84 629.38 C 453.33 629.27 452.38 632.08 450.99 633.66 C 449.82 633.20 448.65 632.72 447.49 632.28 C 447.58 631.79 447.75 630.81 447.84 630.32 C 441.45 630.24 435.11 629.48 428.73 629.20 C 427.64 628.43 426.56 627.66 425.50 626.89 C 426.92 620.60 433.93 618.93 438.35 615.35 C 442.76 610.17 445.10 603.17 451.03 599.35 Z" />
<path fill="#fefefe" opacity="1.00" d=" M 747.46 600.34 C 749.10 599.77 750.83 600.24 752.47 600.57 C 754.13 600.93 755.81 601.32 757.52 601.57 C 760.33 601.45 763.69 600.85 765.83 603.23 C 767.53 604.67 767.21 607.08 767.99 608.97 C 770.13 610.33 773.83 610.41 774.26 613.52 C 774.53 616.35 773.11 618.98 771.93 621.46 C 767.00 620.85 762.04 621.82 757.58 623.94 C 756.73 619.31 753.92 615.53 751.15 611.88 C 747.26 615.21 742.34 617.98 740.98 623.32 C 737.16 622.46 733.19 621.78 729.32 622.69 C 728.57 619.88 726.12 616.76 728.00 613.92 C 729.67 613.02 731.50 612.50 733.29 611.90 C 733.44 610.13 733.04 607.96 734.90 606.95 C 736.99 604.71 740.28 605.79 742.84 604.71 C 744.35 603.23 745.21 600.86 747.46 600.34 Z" />
<path fill="#fefefe" opacity="1.00" d=" M 422.65 645.28 C 425.50 645.61 427.61 647.68 429.49 649.67 C 450.48 650.05 471.49 649.94 492.48 649.72 C 493.86 648.39 495.24 647.06 496.60 645.71 C 497.61 645.63 498.61 645.55 499.63 645.47 C 500.18 646.41 501.39 647.32 500.84 648.56 C 499.89 652.40 500.02 656.37 500.21 660.29 C 499.46 660.31 498.71 660.35 497.97 660.40 C 496.32 658.67 495.33 656.49 494.41 654.33 C 482.27 653.86 470.11 654.23 457.97 654.11 C 447.81 654.23 437.65 653.85 427.51 654.35 C 426.56 657.02 425.12 659.53 422.58 660.95 C 422.61 657.93 422.75 654.91 422.59 651.89 C 421.30 649.80 419.94 646.91 422.65 645.28 Z" />
<path fill="#fefefe" opacity="1.00" d=" M 746.62 659.17 C 748.56 659.35 750.52 659.53 752.40 660.11 C 755.02 661.59 757.66 663.18 760.76 663.36 C 764.42 663.76 767.33 667.30 766.50 671.01 C 765.91 674.50 771.59 674.49 771.48 677.99 C 771.25 681.07 769.29 683.60 767.40 685.89 C 762.71 684.09 757.60 683.99 752.70 684.78 C 753.09 680.02 751.10 675.67 749.15 671.48 C 744.44 673.82 738.88 675.43 736.31 680.48 C 732.77 678.61 728.99 677.18 724.99 676.76 C 724.62 673.61 723.37 669.68 726.49 667.51 C 728.00 667.50 729.52 667.49 731.05 667.48 C 731.36 667.20 731.98 666.64 732.30 666.36 C 732.33 665.73 732.38 664.46 732.41 663.82 C 735.09 662.00 738.30 661.85 741.40 662.45 C 743.79 663.11 745.03 660.43 746.62 659.17 Z" />
<path fill="#fefefe" opacity="1.00" d=" M 715.18 722.59 C 717.38 717.61 723.49 719.13 727.13 721.48 L 727.93 721.12 C 730.54 719.62 733.60 718.93 736.35 720.55 C 738.23 722.02 739.79 723.89 741.75 725.29 C 744.19 726.76 747.57 727.44 748.70 730.43 C 749.87 732.83 748.41 735.37 748.20 737.83 C 749.29 739.68 751.32 740.97 751.89 743.11 C 751.60 746.76 748.16 748.92 745.56 751.00 C 741.34 748.13 736.45 746.25 731.31 746.18 C 732.95 741.57 732.19 736.73 731.37 732.06 C 726.14 732.97 720.23 733.05 716.36 737.24 C 713.38 734.50 710.05 732.05 706.13 730.87 C 706.48 727.94 706.99 725.00 708.29 722.33 C 710.58 722.35 712.87 722.57 715.18 722.59 Z" />
<path fill="#fefefe" opacity="1.00" d=" M 683.61 771.86 C 685.62 766.13 692.17 768.53 695.90 771.04 C 697.77 769.87 699.77 768.79 702.06 768.96 C 704.69 770.35 706.84 772.43 708.97 774.48 C 711.27 776.79 715.35 777.09 716.52 780.53 C 717.78 782.96 716.46 785.53 715.60 787.85 C 716.92 789.78 719.08 791.44 719.21 793.95 C 718.41 797.24 715.57 799.72 712.52 800.95 C 708.27 798.21 703.57 796.21 698.54 795.55 C 700.35 791.03 699.56 786.14 699.39 781.43 C 694.07 782.18 688.14 782.05 684.08 786.18 C 681.16 783.33 677.93 780.66 674.03 779.30 C 674.83 776.50 674.65 772.99 677.16 771.04 C 679.34 770.88 681.47 771.50 683.61 771.86 Z" />
<path fill="#fefefe" opacity="1.00" d=" M 647.93 822.45 C 648.87 821.48 649.14 819.21 650.89 819.37 C 654.42 818.54 657.40 820.74 660.58 821.80 C 662.72 820.36 665.31 820.10 667.74 819.41 C 667.93 819.85 668.31 820.75 668.50 821.20 C 670.17 822.88 671.79 824.61 673.53 826.23 C 675.88 828.26 679.65 828.90 680.71 832.20 C 682.13 834.54 680.35 836.94 679.54 839.14 C 680.89 841.04 682.19 843.00 683.40 845.01 C 682.13 848.40 679.34 850.72 676.35 852.58 C 672.20 849.48 667.41 847.19 662.21 846.64 C 664.30 842.16 663.73 837.23 663.18 832.50 C 657.93 833.41 652.07 832.90 647.95 836.91 C 645.61 834.55 643.18 832.09 639.96 831.04 C 639.38 830.18 638.81 829.34 638.23 828.51 C 638.95 826.08 639.04 822.93 641.53 821.54 C 643.70 821.33 645.80 822.13 647.93 822.45 Z" />
<path fill="#fefefe" opacity="1.00" d=" M 364.71 851.90 C 386.47 846.59 408.61 842.50 430.99 841.04 C 438.60 839.98 446.31 840.75 453.93 839.88 C 458.95 839.58 463.99 839.64 469.01 839.80 C 477.27 840.76 485.64 839.94 493.88 841.13 C 512.79 842.31 531.51 845.61 549.99 849.71 C 565.76 853.12 581.12 858.20 596.22 863.85 C 606.83 868.32 617.51 872.74 627.50 878.50 C 631.27 880.75 635.56 883.44 636.57 888.06 C 637.28 892.04 634.87 895.61 632.70 898.71 C 625.90 908.50 619.37 918.96 609.50 925.98 C 609.96 919.76 604.89 915.57 600.02 912.81 C 584.33 903.49 566.84 897.54 549.10 893.53 C 529.40 888.63 509.17 886.26 488.96 884.94 C 455.90 883.43 422.55 884.24 389.93 890.28 C 366.36 894.92 342.48 901.10 321.98 914.10 C 317.71 916.56 314.17 920.76 314.50 925.98 C 304.63 918.96 298.11 908.51 291.32 898.73 C 289.13 895.62 286.70 892.02 287.43 888.02 C 288.20 884.47 291.09 881.92 294.02 880.05 C 300.71 875.74 307.99 872.46 315.25 869.23 C 331.15 861.92 347.84 856.48 364.71 851.90 M 462.50 847.58 C 456.41 857.57 449.86 867.26 443.71 877.22 C 448.83 877.34 453.94 877.43 459.06 877.53 C 459.90 875.85 460.75 874.18 461.59 872.52 C 467.37 872.63 473.16 872.58 478.94 872.81 C 479.63 874.49 480.26 876.22 481.20 877.80 C 486.45 878.25 491.75 877.93 497.03 878.16 C 490.94 868.13 485.17 857.92 479.06 847.91 C 473.54 847.80 468.02 847.68 462.50 847.58 M 503.80 847.38 C 505.43 857.91 507.36 868.39 508.85 878.95 C 513.65 879.94 518.47 880.82 523.27 881.84 C 527.56 876.38 531.10 870.39 535.46 864.99 C 537.13 871.72 538.64 878.49 540.56 885.16 C 545.34 885.82 550.05 886.90 554.77 887.87 C 560.40 878.88 565.70 869.69 571.09 860.55 C 566.44 859.56 561.78 858.62 557.12 857.73 C 554.49 862.89 551.82 868.03 548.96 873.08 C 547.38 867.19 546.02 861.25 544.58 855.33 C 539.95 854.28 535.26 853.56 530.65 852.48 C 526.86 857.29 523.83 862.67 519.77 867.27 C 519.03 861.50 518.96 855.61 517.63 849.94 C 512.97 849.32 508.40 848.25 503.80 847.38 M 417.66 849.20 C 410.83 849.90 403.79 850.62 397.56 853.68 C 393.16 855.95 389.05 859.85 388.35 864.98 C 387.48 870.72 391.09 876.50 396.31 878.82 C 404.06 882.37 412.89 881.11 421.02 879.80 C 427.50 878.81 433.40 875.86 439.20 872.94 C 438.75 868.67 438.21 864.41 437.58 860.17 C 429.88 861.07 422.22 862.36 414.48 862.81 C 414.70 864.92 414.99 867.03 415.31 869.14 C 418.74 868.68 422.18 868.26 425.64 868.03 C 425.61 868.68 425.55 869.99 425.52 870.64 L 425.21 871.14 C 420.21 873.26 414.57 875.32 409.13 873.71 C 402.42 872.23 400.90 861.25 407.10 858.15 C 411.72 855.68 418.14 854.74 422.35 858.54 C 426.99 857.61 431.57 856.40 436.18 855.30 C 432.54 848.99 424.13 848.49 417.66 849.20 M 359.48 859.19 C 360.77 864.52 362.67 869.68 363.94 875.02 C 356.41 872.25 349.56 867.88 342.02 865.18 C 337.24 865.38 332.87 867.69 328.25 868.74 C 330.74 878.44 333.87 887.98 336.89 897.53 C 341.41 896.11 345.96 894.78 350.47 893.34 C 348.67 888.20 347.34 882.93 345.70 877.75 C 353.15 881.18 360.67 884.48 368.06 888.04 C 372.56 886.66 377.01 885.11 381.60 884.01 C 379.14 874.31 375.73 864.88 373.00 855.25 C 368.44 856.37 364.02 857.96 359.48 859.19 M 580.72 867.76 C 577.30 876.13 574.01 884.55 570.70 892.96 C 575.50 894.55 580.07 896.75 584.85 898.39 C 588.23 889.06 592.42 880.03 595.84 870.71 C 591.55 868.92 587.31 867.01 582.94 865.42 C 581.51 864.70 581.27 866.94 580.72 867.76 Z" />
<path fill="#fefefe" opacity="1.00" d=" M 464.98 866.17 C 466.70 862.59 468.41 859.00 470.63 855.70 C 472.36 859.25 474.07 862.81 475.84 866.35 C 472.22 866.32 468.60 866.27 464.98 866.17 Z" />
<path fill="#fefefe" opacity="1.00" d=" M 223.86 953.06 C 241.51 931.11 265.02 914.51 289.99 901.86 C 295.97 910.11 301.48 918.98 309.45 925.52 C 313.59 929.11 319.40 930.99 324.74 929.08 C 336.17 925.38 345.00 916.00 357.02 913.72 C 359.34 913.66 361.67 913.66 364.00 913.74 C 365.22 914.15 366.45 914.55 367.69 914.95 C 365.28 919.29 360.10 920.68 356.06 923.05 C 340.45 930.66 324.53 937.74 309.61 946.68 C 292.01 956.76 275.54 968.85 260.94 982.94 C 260.76 972.11 260.97 961.27 260.83 950.44 C 258.60 950.60 256.37 950.78 254.17 951.15 C 244.05 951.52 233.97 952.45 223.86 953.06 Z" />
<path fill="#fefefe" opacity="1.00" d=" M 323.44 916.43 C 334.15 909.82 345.74 904.57 357.88 901.18 C 360.53 904.21 362.94 907.45 364.89 910.99 C 353.29 909.27 343.16 916.07 333.70 921.71 C 329.78 924.27 325.53 926.35 320.91 927.29 C 319.77 926.94 318.62 926.61 317.48 926.30 C 316.49 921.86 319.96 918.49 323.44 916.43 Z" />
<path fill="#fefefe" opacity="1.00" d=" M 559.08 910.97 C 561.08 907.46 563.46 904.20 566.12 901.18 C 578.50 904.67 590.37 909.99 601.22 916.88 C 604.62 918.88 607.48 922.39 606.48 926.58 C 603.12 926.94 599.60 926.95 596.58 925.23 C 587.79 920.74 579.84 914.43 570.24 911.68 C 566.63 910.54 562.80 910.88 559.08 910.97 Z" />
<path fill="#fefefe" opacity="1.00" d=" M 634.03 901.85 C 658.98 914.53 682.50 931.11 700.14 953.06 C 690.02 952.45 679.92 951.53 669.79 951.14 C 667.59 950.78 665.38 950.60 663.17 950.44 C 662.92 961.26 663.47 972.09 662.86 982.90 C 647.95 968.13 630.65 955.96 612.49 945.55 C 598.52 937.43 583.82 930.69 569.27 923.72 C 564.79 921.10 559.16 919.62 556.25 915.01 C 557.48 914.57 558.72 914.14 559.95 913.71 C 562.28 913.65 564.61 913.66 566.95 913.74 C 578.98 915.97 587.80 925.36 599.21 929.06 C 604.08 930.78 609.47 929.48 613.46 926.36 C 622.04 919.82 627.74 910.44 634.03 901.85 Z" />
</g>
<g id="#00a859ff">
<path fill="#00a859" opacity="1.00" d=" M 712.18 434.45 C 716.02 436.90 719.90 439.59 722.02 443.78 C 725.70 440.33 730.26 437.94 735.21 436.92 C 738.46 436.25 741.79 436.18 745.09 435.86 C 742.46 438.78 740.19 442.01 737.63 444.98 C 732.93 447.09 727.50 448.20 724.22 452.55 C 721.96 450.85 719.55 449.37 717.10 447.97 C 715.03 450.58 713.20 453.38 711.95 456.47 C 707.54 454.60 702.83 455.80 698.36 456.68 C 698.43 457.09 698.57 457.89 698.64 458.30 C 695.43 460.02 692.38 462.04 689.76 464.59 C 689.72 459.82 690.41 454.14 694.69 451.22 C 698.06 449.23 701.98 448.65 705.83 448.30 C 705.56 442.80 709.32 438.69 712.18 434.45 Z" />
<path fill="#00a859" opacity="1.00" d=" M 732.13 489.77 C 736.02 492.06 740.09 494.44 742.30 498.58 C 745.92 495.06 750.29 492.31 755.21 491.05 C 758.27 490.14 761.46 489.89 764.62 489.58 C 761.98 492.84 760.34 497.15 756.88 499.63 C 752.55 501.49 747.78 503.14 745.11 507.32 C 742.80 505.63 740.28 504.25 737.71 503.03 C 735.80 505.77 734.16 508.69 733.05 511.84 C 728.57 510.48 723.99 511.60 719.64 512.83 C 719.66 513.20 719.71 513.95 719.73 514.33 C 716.92 516.38 714.03 518.34 711.55 520.80 C 711.43 516.27 711.16 510.50 715.49 507.70 C 718.76 505.46 722.67 504.59 726.52 503.93 C 725.91 498.46 729.51 494.15 732.13 489.77 Z" />
<path fill="#00a859" opacity="1.00" d=" M 399.24 552.35 C 414.50 539.76 433.56 532.34 452.97 529.19 C 458.55 528.03 464.15 529.59 469.61 530.70 C 487.55 534.95 505.06 542.65 518.69 555.31 C 523.37 559.41 527.56 564.34 529.59 570.32 C 531.44 575.73 530.54 581.59 531.93 587.09 C 533.03 591.04 537.17 593.20 541.04 593.46 C 548.40 593.95 555.79 594.11 563.14 594.82 C 575.66 596.66 587.98 603.39 594.55 614.48 C 599.16 622.08 599.48 632.12 594.87 639.79 C 589.37 649.57 579.36 655.39 569.88 660.71 C 564.22 663.73 564.66 670.92 564.28 676.41 C 564.24 686.93 562.97 698.43 555.48 706.49 C 545.53 717.62 529.32 718.79 515.36 719.24 C 512.68 723.96 511.02 729.69 512.90 735.01 C 516.09 742.47 524.10 745.80 529.24 751.66 C 481.33 753.90 433.31 754.04 385.40 751.66 C 389.85 746.30 396.65 743.31 400.43 737.36 C 403.89 731.70 402.48 724.40 398.92 719.15 C 387.85 719.07 376.33 717.88 366.43 712.57 C 357.84 707.81 352.63 698.55 351.21 689.03 C 349.73 681.22 351.37 673.01 348.72 665.39 C 347.32 661.51 343.22 659.90 339.91 658.04 C 330.96 652.79 322.02 646.12 317.93 636.23 C 315.40 629.08 316.04 620.67 320.20 614.24 C 326.90 603.22 339.22 596.42 351.82 594.80 C 358.85 594.08 365.91 593.91 372.96 593.51 C 376.82 593.20 381.22 591.53 382.52 587.51 C 384.39 581.89 382.96 575.69 385.11 570.12 C 387.48 562.65 393.49 557.29 399.24 552.35 M 449.46 562.26 C 425.71 564.70 404.45 580.96 394.57 602.48 C 388.27 616.79 386.30 633.18 390.41 648.37 C 396.99 676.96 423.61 699.80 453.02 701.18 C 467.13 702.30 481.65 699.28 493.72 691.77 C 509.91 682.46 521.67 666.22 526.27 648.20 C 528.48 640.04 528.03 631.49 527.69 623.13 C 525.30 602.31 512.85 582.89 494.92 572.03 C 481.62 563.41 465.09 560.30 449.46 562.26 M 450.51 714.39 C 446.83 719.51 442.88 725.40 443.84 732.04 C 445.09 739.24 451.47 743.87 457.06 747.79 C 461.73 745.22 465.99 741.39 469.00 736.94 C 473.50 729.57 469.17 720.64 464.09 714.84 C 459.86 712.85 454.96 713.73 450.51 714.39 M 415.16 718.58 C 412.96 718.51 412.16 720.76 411.33 722.39 C 409.52 726.15 408.57 730.66 410.26 734.65 C 412.62 740.61 418.25 744.26 423.08 748.09 C 428.06 744.15 433.99 740.37 436.09 734.03 C 437.91 728.09 435.15 721.88 431.69 717.13 C 426.17 717.40 420.67 718.16 415.16 718.58 M 482.53 717.39 C 478.91 722.39 476.76 729.09 478.89 735.13 C 481.17 741.02 486.82 744.48 491.65 748.10 C 496.00 744.34 501.21 741.16 503.84 735.85 C 506.55 730.52 504.76 724.09 501.56 719.40 C 498.65 718.00 495.15 718.44 491.99 717.92 C 488.86 717.82 485.58 716.64 482.53 717.39 Z" />
<path fill="#00a859" opacity="1.00" d=" M 739.63 564.59 C 739.77 559.07 744.23 555.51 747.34 551.50 C 750.75 554.50 754.39 557.52 755.97 561.95 C 759.87 559.29 764.26 557.38 768.97 556.74 C 772.47 556.43 775.99 556.69 779.50 556.89 C 776.83 559.56 774.39 562.48 771.50 564.92 C 766.58 566.47 761.15 567.13 757.26 570.87 C 755.24 568.98 753.08 567.26 750.86 565.62 C 748.45 568.00 746.27 570.61 744.57 573.55 C 740.40 570.95 735.48 571.67 730.92 572.54 C 731.18 573.29 731.70 574.78 731.95 575.53 C 731.45 575.24 730.45 574.66 729.95 574.37 C 726.97 575.51 724.21 577.13 721.68 579.06 C 722.35 574.33 723.43 568.80 728.10 566.38 C 731.71 564.74 735.71 564.46 739.63 564.59 Z" />
<path fill="#00a859" opacity="1.00" d=" M 740.98 623.32 C 742.34 617.98 747.26 615.21 751.15 611.88 C 753.92 615.53 756.73 619.31 757.58 623.94 C 762.04 621.82 767.00 620.85 771.93 621.46 C 775.20 621.83 778.40 622.62 781.61 623.38 C 778.57 625.72 775.44 627.95 772.12 629.88 C 767.02 630.39 761.44 629.68 757.11 633.05 C 755.63 630.80 754.15 628.42 751.82 626.97 C 748.57 627.84 746.38 630.61 744.13 632.92 C 740.51 629.91 735.78 629.46 731.29 629.10 C 731.16 629.45 730.91 630.15 730.79 630.50 C 727.27 631.27 723.74 632.15 720.59 633.98 C 722.10 629.39 724.26 624.23 729.32 622.69 C 733.19 621.78 737.16 622.46 740.98 623.32 Z" />
<path fill="#00a859" opacity="1.00" d=" M 736.31 680.48 C 738.88 675.43 744.44 673.82 749.15 671.48 C 751.10 675.67 753.09 680.02 752.70 684.78 C 757.60 683.99 762.71 684.09 767.40 685.89 C 770.31 687.02 773.21 688.23 775.96 689.75 C 775.98 689.93 776.02 690.28 776.04 690.46 C 772.63 691.79 769.18 693.01 765.75 694.24 C 760.51 693.62 755.10 691.23 749.99 693.76 C 749.01 691.02 747.73 688.41 746.25 685.91 C 743.10 687.23 740.02 688.74 737.20 690.69 C 734.67 686.61 729.89 685.48 725.73 683.83 C 725.42 684.15 724.80 684.79 724.48 685.11 C 720.91 684.84 717.32 685.02 713.87 686.03 C 716.57 681.98 719.77 677.46 724.99 676.76 C 728.99 677.18 732.77 678.61 736.31 680.48 Z" />
<path fill="#00a859" opacity="1.00" d=" M 692.70 737.00 C 696.12 733.34 700.81 729.84 706.13 730.87 C 710.05 732.05 713.38 734.50 716.36 737.24 C 720.23 733.05 726.14 732.97 731.37 732.06 C 732.19 736.73 732.95 741.57 731.31 746.18 C 736.45 746.25 741.34 748.13 745.56 751.00 C 748.36 752.90 751.30 754.90 752.88 758.01 C 749.08 758.10 745.31 758.43 741.53 758.67 C 736.66 756.67 732.08 753.33 726.51 754.21 C 726.02 751.17 725.37 748.16 724.54 745.20 C 721.06 745.63 717.61 746.37 714.33 747.62 C 713.06 742.61 708.18 740.36 704.44 737.45 C 704.23 737.84 703.80 738.62 703.59 739.01 C 700.22 737.25 696.43 736.93 692.70 737.00 Z" />
<path fill="#00a859" opacity="1.00" d=" M 660.59 784.78 C 664.25 781.50 668.78 778.07 674.03 779.30 C 677.93 780.66 681.16 783.33 684.08 786.18 C 688.14 782.05 694.07 782.18 699.39 781.43 C 699.56 786.14 700.35 791.03 698.54 795.55 C 703.57 796.21 708.27 798.21 712.52 800.95 C 715.30 803.01 717.74 805.49 719.88 808.21 C 715.81 808.36 711.75 808.76 707.68 808.59 C 703.10 806.03 698.46 802.93 692.94 803.46 C 692.84 800.51 692.58 797.56 692.28 794.63 C 688.73 794.84 685.22 795.48 681.83 796.55 C 680.25 791.71 675.97 788.78 672.04 785.96 C 671.84 786.28 671.43 786.92 671.23 787.24 C 667.73 786.23 664.30 784.84 660.59 784.78 Z" />
<path fill="#00a859" opacity="1.00" d=" M 624.54 834.91 C 627.37 832.67 630.29 830.19 633.99 829.63 C 636.10 829.24 638.00 830.47 639.96 831.04 C 643.18 832.09 645.61 834.55 647.95 836.91 C 652.07 832.90 657.93 833.41 663.18 832.50 C 663.73 837.23 664.30 842.16 662.21 846.64 C 667.41 847.19 672.20 849.48 676.35 852.58 C 679.18 854.48 681.43 857.07 683.57 859.69 C 679.67 859.66 675.79 859.93 671.90 860.05 C 666.95 857.95 662.65 853.74 656.89 854.29 C 656.79 851.32 656.34 848.38 655.60 845.52 C 652.15 845.82 648.70 846.22 645.40 847.32 C 644.24 842.70 640.40 839.79 636.80 837.07 C 636.32 837.15 635.34 837.31 634.85 837.39 C 631.43 836.63 628.16 834.90 624.54 834.91 Z" />
<path fill="#00a859" opacity="1.00" d=" M 439.99 887.21 C 446.77 887.41 453.53 886.69 460.31 887.04 C 457.71 891.66 454.14 896.36 454.60 901.96 C 454.65 913.06 454.71 924.17 454.58 935.27 C 458.58 939.54 463.04 943.36 466.87 947.82 C 462.80 952.87 458.72 957.92 454.63 962.96 C 454.66 974.77 454.63 986.58 454.64 998.39 C 458.59 998.23 462.53 998.04 466.48 997.89 C 463.64 1005.52 460.85 1013.18 457.88 1020.76 C 456.43 1024.73 454.48 1028.69 454.61 1033.02 C 454.64 1040.43 454.61 1047.84 454.70 1055.25 C 452.00 1055.44 449.31 1055.57 446.62 1055.65 C 446.62 1043.83 446.81 1032.00 446.57 1020.18 C 444.85 1014.12 440.84 1008.95 438.34 1003.18 C 441.12 1001.44 444.19 1000.03 446.51 997.66 C 446.95 987.78 446.48 977.85 446.71 967.95 C 446.53 965.47 447.27 962.54 445.40 960.54 C 442.30 956.74 439.05 953.07 436.19 949.09 C 439.39 943.78 443.51 939.03 446.45 933.59 C 447.03 927.08 446.48 920.52 446.66 914.00 C 446.47 908.82 447.12 903.58 446.36 898.45 C 444.74 894.52 442.21 891.06 440.10 887.40 L 439.99 887.21 Z" />
</g>
</svg>
